<svg width="9" height="17" viewBox="0 0 9 17" fill="none" xmlns="http://www.w3.org/2000/svg">
<path fill-rule="evenodd" clip-rule="evenodd" d="M5.56347 16.8197V8.65888H7.81621L8.11474 5.84663H5.56347L5.5673 4.43907C5.5673 3.70559 5.63699 3.31257 6.69048 3.31257H8.0988V0.5H5.84574C3.13946 0.5 2.18692 1.86425 2.18692 4.15848V5.84695H0.5V8.6592H2.18692V16.8197H5.56347Z" fill="url(#paint0_linear_388_767)"/>
<mask id="mask0_388_767" style="mask-type:luminance" maskUnits="userSpaceOnUse" x="0" y="0" width="9" height="17">
<path fill-rule="evenodd" clip-rule="evenodd" d="M5.56347 16.8197V8.65888H7.81621L8.11474 5.84663H5.56347L5.5673 4.43907C5.5673 3.70559 5.63699 3.31257 6.69048 3.31257H8.0988V0.5H5.84574C3.13946 0.5 2.18692 1.86425 2.18692 4.15848V5.84695H0.5V8.6592H2.18692V16.8197H5.56347Z" fill="white"/>
</mask>
<g mask="url(#mask0_388_767)">
<rect x="-10.5" y="-6" width="30" height="30" fill="url(#paint1_linear_388_767)"/>
</g>
<defs>
<linearGradient id="paint0_linear_388_767" x1="0.5" y1="8.65984" x2="8.11474" y2="8.65984" gradientUnits="userSpaceOnUse">
<stop stop-color="#77BB77"/>
<stop offset="1" stop-color="#234623"/>
</linearGradient>
<linearGradient id="paint1_linear_388_767" x1="-10.5" y1="9" x2="19.5" y2="9" gradientUnits="userSpaceOnUse">
<stop stop-color="#77BB77"/>
<stop offset="1" stop-color="#234623"/>
</linearGradient>
</defs>
</svg>
