<svg width="19" height="18" viewBox="0 0 19 18" fill="none" xmlns="http://www.w3.org/2000/svg">
<path d="M9.49775 5.99872C7.84513 5.99872 6.49647 7.34738 6.49647 9C6.49647 10.6526 7.84513 12.0013 9.49775 12.0013C11.1504 12.0013 12.499 10.6526 12.499 9C12.499 7.34738 11.1504 5.99872 9.49775 5.99872ZM18.4993 9C18.4993 7.75716 18.5106 6.52558 18.4408 5.28499C18.371 3.84402 18.0423 2.56515 16.9886 1.51144C15.9326 0.455477 14.656 0.129006 13.215 0.0592092C11.9722 -0.0105879 10.7406 0.000669702 9.5 0.000669702C8.25716 0.000669702 7.02558 -0.0105879 5.78499 0.0592092C4.34402 0.129006 3.06515 0.457728 2.01144 1.51144C0.955477 2.5674 0.629006 3.84402 0.559209 5.28499C0.489412 6.52783 0.50067 7.75941 0.50067 9C0.50067 10.2406 0.489412 11.4744 0.559209 12.715C0.629006 14.156 0.957729 15.4348 2.01144 16.4886C3.0674 17.5445 4.34402 17.871 5.78499 17.9408C7.02783 18.0106 8.25941 17.9993 9.5 17.9993C10.7428 17.9993 11.9744 18.0106 13.215 17.9408C14.656 17.871 15.9349 17.5423 16.9886 16.4886C18.0445 15.4326 18.371 14.156 18.4408 12.715C18.5128 11.4744 18.4993 10.2428 18.4993 9ZM9.49775 13.6179C6.94227 13.6179 4.87988 11.5555 4.87988 9C4.87988 6.44452 6.94227 4.38213 9.49775 4.38213C12.0532 4.38213 14.1156 6.44452 14.1156 9C14.1156 11.5555 12.0532 13.6179 9.49775 13.6179ZM14.3047 5.27148C13.7081 5.27148 13.2263 4.78966 13.2263 4.193C13.2263 3.59635 13.7081 3.11452 14.3047 3.11452C14.9014 3.11452 15.3832 3.59635 15.3832 4.193C15.3834 4.33468 15.3556 4.475 15.3015 4.60593C15.2474 4.73686 15.1679 4.85582 15.0677 4.956C14.9676 5.05618 14.8486 5.13561 14.7177 5.18975C14.5867 5.24388 14.4464 5.27166 14.3047 5.27148Z" fill="black"/>
<mask id="mask0_388_789" style="mask-type:luminance" maskUnits="userSpaceOnUse" x="0" y="0" width="19" height="18">
<path d="M9.49775 5.99872C7.84513 5.99872 6.49647 7.34738 6.49647 9C6.49647 10.6526 7.84513 12.0013 9.49775 12.0013C11.1504 12.0013 12.499 10.6526 12.499 9C12.499 7.34738 11.1504 5.99872 9.49775 5.99872ZM18.4993 9C18.4993 7.75716 18.5106 6.52558 18.4408 5.28499C18.371 3.84402 18.0423 2.56515 16.9886 1.51144C15.9326 0.455477 14.656 0.129006 13.215 0.0592092C11.9722 -0.0105879 10.7406 0.000669702 9.5 0.000669702C8.25716 0.000669702 7.02558 -0.0105879 5.78499 0.0592092C4.34402 0.129006 3.06515 0.457728 2.01144 1.51144C0.955477 2.5674 0.629006 3.84402 0.559209 5.28499C0.489412 6.52783 0.50067 7.75941 0.50067 9C0.50067 10.2406 0.489412 11.4744 0.559209 12.715C0.629006 14.156 0.957729 15.4348 2.01144 16.4886C3.0674 17.5445 4.34402 17.871 5.78499 17.9408C7.02783 18.0106 8.25941 17.9993 9.5 17.9993C10.7428 17.9993 11.9744 18.0106 13.215 17.9408C14.656 17.871 15.9349 17.5423 16.9886 16.4886C18.0445 15.4326 18.371 14.156 18.4408 12.715C18.5128 11.4744 18.4993 10.2428 18.4993 9ZM9.49775 13.6179C6.94227 13.6179 4.87988 11.5555 4.87988 9C4.87988 6.44452 6.94227 4.38213 9.49775 4.38213C12.0532 4.38213 14.1156 6.44452 14.1156 9C14.1156 11.5555 12.0532 13.6179 9.49775 13.6179ZM14.3047 5.27148C13.7081 5.27148 13.2263 4.78966 13.2263 4.193C13.2263 3.59635 13.7081 3.11452 14.3047 3.11452C14.9014 3.11452 15.3832 3.59635 15.3832 4.193C15.3834 4.33468 15.3556 4.475 15.3015 4.60593C15.2474 4.73686 15.1679 4.85582 15.0677 4.956C14.9676 5.05618 14.8486 5.13561 14.7177 5.18975C14.5867 5.24388 14.4464 5.27166 14.3047 5.27148Z" fill="white"/>
</mask>
<g mask="url(#mask0_388_789)">
<rect x="-7.47534" y="-8.97266" width="30" height="30" fill="url(#paint0_linear_388_789)"/>
</g>
<defs>
<linearGradient id="paint0_linear_388_789" x1="-7.47534" y1="6.02734" x2="22.5247" y2="6.02734" gradientUnits="userSpaceOnUse">
<stop stop-color="#77BB77"/>
<stop offset="1" stop-color="#234623"/>
</linearGradient>
</defs>
</svg>
