<svg width="19" height="18" viewBox="0 0 19 18" fill="none" xmlns="http://www.w3.org/2000/svg">
<path d="M0.503612 18L1.72041 13.5288C0.918636 12.1544 0.497398 10.5912 0.500012 8.99999C0.500012 4.0293 4.52931 0 9.50001 0C14.4707 0 18.5 4.0293 18.5 8.99999C18.5 13.9707 14.4707 18 9.50001 18C7.90951 18.0026 6.347 17.5816 4.97301 16.7805L0.503612 18ZM6.25191 4.7772C6.13568 4.78441 6.02212 4.81502 5.91801 4.8672C5.82038 4.92248 5.73126 4.9916 5.65341 5.0724C5.54541 5.1741 5.48421 5.2623 5.41851 5.3478C5.08588 5.78069 4.90696 6.31207 4.91001 6.858C4.91181 7.299 5.02701 7.72829 5.20701 8.12969C5.57511 8.94149 6.18081 9.80099 6.98091 10.5975C7.17351 10.7892 7.36161 10.9818 7.56411 11.1609C8.55716 12.0352 9.74053 12.6657 11.0201 13.0023L11.5322 13.0806C11.6987 13.0896 11.8652 13.077 12.0326 13.0689C12.2947 13.0554 12.5507 12.9844 12.7823 12.861C12.9002 12.8003 13.0152 12.7342 13.127 12.663C13.127 12.663 13.1657 12.6378 13.2395 12.582C13.361 12.492 13.4357 12.4281 13.5365 12.3228C13.6112 12.2454 13.676 12.1545 13.7255 12.051C13.7957 11.9043 13.8659 11.6244 13.8947 11.3913C13.9163 11.2131 13.91 11.1159 13.9073 11.0556C13.9037 10.9593 13.8236 10.8594 13.7363 10.8171L13.2125 10.5822C13.2125 10.5822 12.4295 10.2411 11.9516 10.0233C11.9012 10.0013 11.8472 9.98882 11.7923 9.98639C11.7307 9.98007 11.6685 9.987 11.6098 10.0067C11.5512 10.0264 11.4974 10.0585 11.4521 10.1007V10.0989C11.4476 10.0989 11.3873 10.1502 10.7366 10.9386C10.6993 10.9888 10.6478 11.0267 10.5888 11.0475C10.5298 11.0684 10.466 11.0712 10.4054 11.0556C10.3468 11.0399 10.2893 11.0201 10.2335 10.9962C10.1219 10.9494 10.0832 10.9314 10.0067 10.8981L10.0022 10.8963C9.48732 10.6715 9.01061 10.3679 8.58921 9.99629C8.47581 9.89729 8.37051 9.78929 8.26251 9.68489C7.90843 9.34581 7.59985 8.9622 7.34451 8.54369L7.29141 8.45819C7.25327 8.40074 7.22243 8.33877 7.19961 8.27369C7.16541 8.14139 7.25451 8.03519 7.25451 8.03519C7.25451 8.03519 7.47321 7.79579 7.57491 7.66619C7.65959 7.55848 7.73859 7.44643 7.81161 7.3305C7.91781 7.1595 7.95111 6.984 7.89531 6.8481C7.64331 6.2325 7.38231 5.6196 7.11411 5.0112C7.06101 4.8906 6.90351 4.8042 6.76041 4.7871C6.71181 4.7817 6.66321 4.7763 6.61461 4.7727C6.49374 4.76669 6.37263 4.76789 6.25191 4.7763V4.7772Z" fill="black"/>
<mask id="mask0_388_781" style="mask-type:luminance" maskUnits="userSpaceOnUse" x="0" y="0" width="19" height="18">
<path d="M0.503612 18L1.72041 13.5288C0.918636 12.1544 0.497398 10.5912 0.500012 8.99999C0.500012 4.0293 4.52931 0 9.50001 0C14.4707 0 18.5 4.0293 18.5 8.99999C18.5 13.9707 14.4707 18 9.50001 18C7.90951 18.0026 6.347 17.5816 4.97301 16.7805L0.503612 18ZM6.25191 4.7772C6.13568 4.78441 6.02212 4.81502 5.91801 4.8672C5.82038 4.92248 5.73126 4.9916 5.65341 5.0724C5.54541 5.1741 5.48421 5.2623 5.41851 5.3478C5.08588 5.78069 4.90696 6.31207 4.91001 6.858C4.91181 7.299 5.02701 7.72829 5.20701 8.12969C5.57511 8.94149 6.18081 9.80099 6.98091 10.5975C7.17351 10.7892 7.36161 10.9818 7.56411 11.1609C8.55716 12.0352 9.74053 12.6657 11.0201 13.0023L11.5322 13.0806C11.6987 13.0896 11.8652 13.077 12.0326 13.0689C12.2947 13.0554 12.5507 12.9844 12.7823 12.861C12.9002 12.8003 13.0152 12.7342 13.127 12.663C13.127 12.663 13.1657 12.6378 13.2395 12.582C13.361 12.492 13.4357 12.4281 13.5365 12.3228C13.6112 12.2454 13.676 12.1545 13.7255 12.051C13.7957 11.9043 13.8659 11.6244 13.8947 11.3913C13.9163 11.2131 13.91 11.1159 13.9073 11.0556C13.9037 10.9593 13.8236 10.8594 13.7363 10.8171L13.2125 10.5822C13.2125 10.5822 12.4295 10.2411 11.9516 10.0233C11.9012 10.0013 11.8472 9.98882 11.7923 9.98639C11.7307 9.98007 11.6685 9.987 11.6098 10.0067C11.5512 10.0264 11.4974 10.0585 11.4521 10.1007V10.0989C11.4476 10.0989 11.3873 10.1502 10.7366 10.9386C10.6993 10.9888 10.6478 11.0267 10.5888 11.0475C10.5298 11.0684 10.466 11.0712 10.4054 11.0556C10.3468 11.0399 10.2893 11.0201 10.2335 10.9962C10.1219 10.9494 10.0832 10.9314 10.0067 10.8981L10.0022 10.8963C9.48732 10.6715 9.01061 10.3679 8.58921 9.99629C8.47581 9.89729 8.37051 9.78929 8.26251 9.68489C7.90843 9.34581 7.59985 8.9622 7.34451 8.54369L7.29141 8.45819C7.25327 8.40074 7.22243 8.33877 7.19961 8.27369C7.16541 8.14139 7.25451 8.03519 7.25451 8.03519C7.25451 8.03519 7.47321 7.79579 7.57491 7.66619C7.65959 7.55848 7.73859 7.44643 7.81161 7.3305C7.91781 7.1595 7.95111 6.984 7.89531 6.8481C7.64331 6.2325 7.38231 5.6196 7.11411 5.0112C7.06101 4.8906 6.90351 4.8042 6.76041 4.7871C6.71181 4.7817 6.66321 4.7763 6.61461 4.7727C6.49374 4.76669 6.37263 4.76789 6.25191 4.7763V4.7772Z" fill="white"/>
</mask>
<g mask="url(#mask0_388_781)">
<rect x="-4.5" y="-5" width="30" height="30" fill="url(#paint0_linear_388_781)"/>
</g>
<defs>
<linearGradient id="paint0_linear_388_781" x1="-4.5" y1="10" x2="25.5" y2="10" gradientUnits="userSpaceOnUse">
<stop stop-color="#77BB77"/>
<stop offset="1" stop-color="#234623"/>
</linearGradient>
</defs>
</svg>
