<svg width="21" height="21" viewBox="0 0 21 21" fill="none" xmlns="http://www.w3.org/2000/svg">
<path d="M10.5 0C13.2848 0 15.9555 1.10625 17.9246 3.07538C19.8938 5.04451 21 7.71523 21 10.5C21 13.2848 19.8938 15.9555 17.9246 17.9246C15.9555 19.8938 13.2848 21 10.5 21C7.71523 21 5.04451 19.8938 3.07538 17.9246C1.10625 15.9555 0 13.2848 0 10.5C0 7.71523 1.10625 5.04451 3.07538 3.07538C5.04451 1.10625 7.71523 0 10.5 0ZM10.5 19.5C12.8869 19.5 15.1761 18.5518 16.864 16.864C18.5518 15.1761 19.5 12.8869 19.5 10.5C19.5 8.11305 18.5518 5.82387 16.864 4.13604C15.1761 2.44821 12.8869 1.5 10.5 1.5C8.11305 1.5 5.82387 2.44821 4.13604 4.13604C2.44821 5.82387 1.5 8.11305 1.5 10.5C1.5 12.8869 2.44821 15.1761 4.13604 16.864C5.82387 18.5518 8.11305 19.5 10.5 19.5ZM11.625 15.375C11.625 15.6734 11.5065 15.9595 11.2955 16.1705C11.0845 16.3815 10.7984 16.5 10.5 16.5C10.2016 16.5 9.91548 16.3815 9.7045 16.1705C9.49353 15.9595 9.375 15.6734 9.375 15.375C9.375 15.0766 9.49353 14.7905 9.7045 14.5795C9.91548 14.3685 10.2016 14.25 10.5 14.25C10.7984 14.25 11.0845 14.3685 11.2955 14.5795C11.5065 14.7905 11.625 15.0766 11.625 15.375ZM10.5 4.5C10.6989 4.5 10.8897 4.57902 11.0303 4.71967C11.171 4.86032 11.25 5.05109 11.25 5.25V12C11.25 12.1989 11.171 12.3897 11.0303 12.5303C10.8897 12.671 10.6989 12.75 10.5 12.75C10.3011 12.75 10.1103 12.671 9.96967 12.5303C9.82902 12.3897 9.75 12.1989 9.75 12V5.25C9.75 5.05109 9.82902 4.86032 9.96967 4.71967C10.1103 4.57902 10.3011 4.5 10.5 4.5Z" fill="#CC7914"/>
</svg>
