<svg width="50" height="50" viewBox="0 0 50 50" fill="none" xmlns="http://www.w3.org/2000/svg">
<path d="M0 25C0 11.1929 11.1929 0 25 0C38.8071 0 50 11.1929 50 25C50 38.8071 38.8071 50 25 50C11.1929 50 0 38.8071 0 25Z" fill="white"/>
<path d="M17.8267 23.3867C19.7467 27.16 22.84 30.2533 26.6133 32.1733L29.5467 29.24C29.92 28.8667 30.44 28.76 30.9067 28.9067C32.4 29.4 34 29.6667 35.6667 29.6667C36.0203 29.6667 36.3594 29.8071 36.6095 30.0572C36.8595 30.3072 37 30.6464 37 31V35.6667C37 36.0203 36.8595 36.3594 36.6095 36.6095C36.3594 36.8595 36.0203 37 35.6667 37C29.6551 37 23.8897 34.6119 19.6389 30.3611C15.3881 26.1103 13 20.3449 13 14.3333C13 13.9797 13.1405 13.6406 13.3905 13.3905C13.6406 13.1405 13.9797 13 14.3333 13H19C19.3536 13 19.6928 13.1405 19.9428 13.3905C20.1929 13.6406 20.3333 13.9797 20.3333 14.3333C20.3333 16 20.6 17.6 21.0933 19.0933C21.24 19.56 21.1333 20.08 20.76 20.4533L17.8267 23.3867Z" fill="#77BB77"/>
</svg>
