<svg width="37" height="38" viewBox="0 0 37 38" fill="none" xmlns="http://www.w3.org/2000/svg">
<path d="M7.44111 16.5128C10.4011 22.33 15.17 27.0989 20.9872 30.0589L25.5094 25.5367C26.085 24.9611 26.8867 24.7967 27.6061 25.0228C29.9083 25.7833 32.375 26.1944 34.9444 26.1944C35.4896 26.1944 36.0125 26.411 36.3979 26.7965C36.7834 27.182 37 27.7048 37 28.25V35.4444C37 35.9896 36.7834 36.5125 36.3979 36.8979C36.0125 37.2834 35.4896 37.5 34.9444 37.5C25.6766 37.5 16.7883 33.8184 10.235 27.265C3.68164 20.7117 0 11.8234 0 2.55556C0 2.01039 0.216567 1.48755 0.602058 1.10206C0.98755 0.716567 1.51039 0.5 2.05556 0.5H9.25C9.79517 0.5 10.318 0.716567 10.7035 1.10206C11.089 1.48755 11.3056 2.01039 11.3056 2.55556C11.3056 5.125 11.7167 7.59167 12.4772 9.89389C12.7033 10.6133 12.5389 11.415 11.9633 11.9906L7.44111 16.5128Z" fill="#77BB77"/>
</svg>
