<svg width="55" height="56" viewBox="0 0 55 56" fill="none" xmlns="http://www.w3.org/2000/svg">
<circle cx="27.5" cy="28" r="27.5" fill="#77BB77"/>
<path d="M20.0278 26.3194C22.0278 30.25 25.25 33.4722 29.1806 35.4722L32.2361 32.4167C32.625 32.0278 33.1667 31.9167 33.6528 32.0694C35.2083 32.5833 36.875 32.8611 38.6111 32.8611C38.9795 32.8611 39.3327 33.0074 39.5932 33.2679C39.8537 33.5284 40 33.8816 40 34.25V39.1111C40 39.4795 39.8537 39.8327 39.5932 40.0932C39.3327 40.3537 38.9795 40.5 38.6111 40.5C32.3491 40.5 26.3435 38.0124 21.9155 33.5845C17.4876 29.1565 15 23.1509 15 16.8889C15 16.5205 15.1463 16.1673 15.4068 15.9068C15.6673 15.6463 16.0205 15.5 16.3889 15.5H21.25C21.6184 15.5 21.9716 15.6463 22.2321 15.9068C22.4926 16.1673 22.6389 16.5205 22.6389 16.8889C22.6389 18.625 22.9167 20.2917 23.4306 21.8472C23.5833 22.3333 23.4722 22.875 23.0833 23.2639L20.0278 26.3194Z" fill="white"/>
</svg>
