<svg width="230" height="133" viewBox="0 0 230 133" fill="none" xmlns="http://www.w3.org/2000/svg">
<path d="M177.136 19.0001C140.756 -7.343 70.7997 -2.88625 34.891 20.1653C18.5373 30.6638 -11.6186 61.0834 6.73139 89.8033C9.96785 94.869 13.9019 98.9844 17.9722 102.545C62.7673 141.734 125.245 137.743 173.32 114.294C180.49 110.797 187.545 106.646 194.036 101.003C198.891 96.7831 203.585 91.5523 207.365 85.4482C218.432 67.5782 215.541 49.5944 203.634 34.4445C189.829 16.8793 170.95 11.436 153.137 8.45487C137.561 5.84818 122.004 5.34762 106.354 6.41149C77.0033 8.40643 43.1788 11.5807 18.5624 35.5955C7.81055 46.0848 -3.74088 68.4987 5.47536 86.6396C15.4623 106.297 39.0105 112.662 54.8492 116.81C97.5771 128.001 165.184 122.452 204.104 93.086C208.301 89.9191 212.553 86.9679 216.307 82.8036C219.274 79.5131 222.114 75.7611 224.578 71.7006C242.04 42.9242 203.075 24.8309 189.333 21.7237C146.103 11.949 82.1195 -2.15697 42.3066 23.8457" stroke="white" stroke-width="2" stroke-miterlimit="1.5" stroke-linecap="round" stroke-linejoin="round"/>
</svg>
