<svg width="64" height="64" viewBox="0 0 64 64" fill="none" xmlns="http://www.w3.org/2000/svg">
<path fill-rule="evenodd" clip-rule="evenodd" d="M23.863 4.1876C27.851 -1.39587 36.1493 -1.39587 40.1377 4.1876L40.7727 5.0765C41.4743 6.05917 42.653 6.58533 43.853 6.452L46.683 6.13753C53.0523 5.42987 58.434 10.8116 57.7263 17.1807L57.412 20.0108C57.2787 21.2109 57.8047 22.3894 58.7873 23.0913L59.6763 23.7262C65.2597 27.7143 65.2597 36.0126 59.6763 40.0009L58.7873 40.6359C57.8047 41.3376 57.2787 42.5163 57.412 43.7163L57.7263 46.5463C58.434 52.9156 53.0523 58.2973 46.683 57.5896L43.853 57.2753C42.653 57.1419 41.4743 57.6679 40.7727 58.6506L40.1377 59.5396C36.1493 65.1229 27.8513 65.1229 23.863 59.5396L23.228 58.6506C22.5261 57.6679 21.3477 57.1419 20.1475 57.2753L17.3174 57.5896C10.9483 58.2973 5.56658 52.9156 6.27425 46.5463L6.58872 43.7163C6.72205 42.5163 6.19589 41.3376 5.21322 40.6359L4.32432 40.0009C-1.25915 36.0126 -1.25915 27.7146 4.32432 23.7262L5.21322 23.0913C6.19589 22.3894 6.72205 21.2109 6.58872 20.0107L6.27425 17.1807C5.56658 10.8116 10.9483 5.42987 17.3174 6.13753L20.1475 6.452C21.3477 6.58533 22.5261 6.05917 23.228 5.0765L23.863 4.1876ZM44.3573 22.8399C45.659 24.1417 45.659 26.2523 44.3573 27.5539L31.6277 40.2836C29.9927 41.9189 27.3413 41.9189 25.7063 40.2836L19.6433 34.2206C18.3416 32.9189 18.3416 30.8083 19.6433 29.5066C20.9451 28.2049 23.0556 28.2049 24.3574 29.5066L28.667 33.8163L39.6433 22.8399C40.945 21.5382 43.0557 21.5382 44.3573 22.8399Z" fill="#00C300"/>
</svg>
