<svg width="39" height="29" viewBox="0 0 39 29" fill="none" xmlns="http://www.w3.org/2000/svg">
<path d="M2 12.751L6.91225 7.22623C7.56898 6.48717 8.37483 5.89562 9.27671 5.49053C10.1786 5.08544 11.1561 4.87599 12.1447 4.87598H12.5M2 27.626H11.625L18.625 22.376C18.625 22.376 20.0425 21.4187 22.125 19.751C26.5 16.251 22.125 10.7105 17.75 13.626C14.187 16.0007 10.75 18.001 10.75 18.001" stroke="#77BB77" stroke-width="2.625" stroke-linecap="round" stroke-linejoin="round"/>
<path d="M12.5 17.126V5.75098C12.5 4.82272 12.8687 3.93248 13.5251 3.2761C14.1815 2.61973 15.0717 2.25098 16 2.25098H33.5C34.4283 2.25098 35.3185 2.61973 35.9749 3.2761C36.6313 3.93248 37 4.82272 37 5.75098V16.251C37 17.1792 36.6313 18.0695 35.9749 18.7258C35.3185 19.3822 34.4283 19.751 33.5 19.751H22.125" stroke="#77BB77" stroke-width="2.625"/>
<path d="M32.625 11.0185L32.6425 10.9992M16.875 11.0185L16.8925 10.9992M24.75 14.501C23.8217 14.501 22.9315 14.1322 22.2751 13.4758C21.6187 12.8195 21.25 11.9292 21.25 11.001C21.25 10.0727 21.6187 9.18248 22.2751 8.5261C22.9315 7.86973 23.8217 7.50098 24.75 7.50098C25.6783 7.50098 26.5685 7.86973 27.2249 8.5261C27.8813 9.18248 28.25 10.0727 28.25 11.001C28.25 11.9292 27.8813 12.8195 27.2249 13.4758C26.5685 14.1322 25.6783 14.501 24.75 14.501Z" stroke="#77BB77" stroke-width="2.625" stroke-linecap="round" stroke-linejoin="round"/>
</svg>
