<svg width="31" height="39" viewBox="0 0 31 39" fill="none" xmlns="http://www.w3.org/2000/svg">
<path d="M1.5 23.001H5.69125C6.20575 23.001 6.71325 23.1165 7.1735 23.3405L10.747 25.0695C11.2073 25.2917 11.7147 25.4072 12.231 25.4072H14.0545C15.8185 25.4072 17.25 26.7915 17.25 28.4995C17.25 28.5695 17.2028 28.629 17.1345 28.6482L12.6877 29.8785C11.8898 30.0989 11.039 30.0218 10.2937 29.6615L6.4735 27.8135" stroke="#77BB77" stroke-width="2.625" stroke-linecap="round" stroke-linejoin="round"/>
<path d="M17.25 27.376L25.2878 24.9067C25.9875 24.692 26.7372 24.7038 27.4298 24.9405C28.1225 25.1771 28.7227 25.6265 29.1448 26.2245C29.7905 27.117 29.528 28.398 28.5865 28.9405L15.4353 36.5302C15.024 36.7682 14.5687 36.9199 14.0969 36.9761C13.6252 37.0324 13.1469 36.992 12.6913 36.8575L1.5 33.536M17.25 7.25098H20.75M20.75 19.501H17.25C13.9495 19.501 12.301 19.501 11.2755 18.4755C10.25 17.45 10.25 15.8015 10.25 12.501V9.00098C10.25 5.70048 10.25 4.05198 11.2755 3.02648C12.301 2.00098 13.9495 2.00098 17.25 2.00098H20.75C24.0505 2.00098 25.699 2.00098 26.7245 3.02648C27.75 4.05198 27.75 5.70048 27.75 9.00098V12.501C27.75 15.8015 27.75 17.45 26.7245 18.4755C25.699 19.501 24.0505 19.501 20.75 19.501Z" stroke="#77BB77" stroke-width="2.625" stroke-linecap="round" stroke-linejoin="round"/>
</svg>
