<svg width="40" height="41" viewBox="0 0 40 41" fill="none" xmlns="http://www.w3.org/2000/svg">
<rect y="0.5" width="40" height="40" rx="10" fill={dropped ? "#77BB77" : "#898483"}/>
<rect width="30" height="30" transform="translate(5 5.5)" fill={dropped ? "#77BB77" : "#898483"}/>
<path d="M20 19.875C19.1712 19.875 18.3763 19.5458 17.7903 18.9597C17.2042 18.3737 16.875 17.5788 16.875 16.75C16.875 15.9212 17.2042 15.1263 17.7903 14.5403C18.3763 13.9542 19.1712 13.625 20 13.625C20.8288 13.625 21.6237 13.9542 22.2097 14.5403C22.7958 15.1263 23.125 15.9212 23.125 16.75C23.125 17.1604 23.0442 17.5667 22.8871 17.9459C22.7301 18.325 22.4999 18.6695 22.2097 18.9597C21.9195 19.2499 21.575 19.4801 21.1959 19.6371C20.8167 19.7942 20.4104 19.875 20 19.875ZM20 8C17.6794 8 15.4538 8.92187 13.8128 10.5628C12.1719 12.2038 11.25 14.4294 11.25 16.75C11.25 23.3125 20 33 20 33C20 33 28.75 23.3125 28.75 16.75C28.75 14.4294 27.8281 12.2038 26.1872 10.5628C24.5462 8.92187 22.3206 8 20 8Z" fill="white"/>
</svg>
