<svg width="24" height="25" viewBox="0 0 24 25" fill="none" xmlns="http://www.w3.org/2000/svg">
<path fill-rule="evenodd" clip-rule="evenodd" d="M4.2 5.59258L11.76 11.2626C11.8292 11.3145 11.9135 11.3426 12 11.3426C12.0865 11.3426 12.1708 11.3145 12.24 11.2626L19.8 5.59258H4.2ZM20.8 6.34258L12.96 12.2226C12.683 12.4303 12.3462 12.5426 12 12.5426C11.6538 12.5426 11.317 12.4303 11.04 12.2226L3.2 6.34258V19.1926H20.8V6.34258ZM3 4.39258H21C21.2652 4.39258 21.5196 4.49794 21.7071 4.68547C21.8946 4.87301 22 5.12736 22 5.39258V19.3926C22 19.6578 21.8946 19.9121 21.7071 20.0997C21.5196 20.2872 21.2652 20.3926 21 20.3926H3C2.73478 20.3926 2.48043 20.2872 2.29289 20.0997C2.10536 19.9121 2 19.6578 2 19.3926V5.39258C2 5.12736 2.10536 4.87301 2.29289 4.68547C2.48043 4.49794 2.73478 4.39258 3 4.39258Z" fill="#898483"/>
</svg>
