<svg width="28" height="29" viewBox="0 0 28 29" fill="none" xmlns="http://www.w3.org/2000/svg">
<path d="M14 0.5C6.28043 0.5 0 6.78043 0 14.5C0 22.2196 6.28043 28.5 14 28.5C21.7196 28.5 28 22.2196 28 14.5C28 6.78043 21.7196 0.5 14 0.5ZM17.4817 14.9929H15.204C15.204 18.6319 15.204 23.1123 15.204 23.1123H11.8289C11.8289 23.1123 11.8289 18.6753 11.8289 14.9929H10.2245V12.1236H11.8289V10.2677C11.8289 8.93857 12.4605 6.86164 15.235 6.86164L17.7349 6.87122V9.65645C17.7349 9.65645 16.2151 9.65645 15.9196 9.65645C15.6241 9.65645 15.2045 9.8042 15.2045 10.438V12.1242H17.776L17.4817 14.9929Z" fill="#77BB77"/>
</svg>
