<svg width="24" height="25" viewBox="0 0 24 25" fill="none" xmlns="http://www.w3.org/2000/svg">
<path d="M21.8055 10.4341H21V10.3926H12V14.3926H17.6515C16.827 16.7211 14.6115 18.3926 12 18.3926C8.6865 18.3926 6 15.7061 6 12.3926C6 9.07908 8.6865 6.39258 12 6.39258C13.5295 6.39258 14.921 6.96958 15.9805 7.91208L18.809 5.08358C17.023 3.41908 14.634 2.39258 12 2.39258C6.4775 2.39258 2 6.87008 2 12.3926C2 17.9151 6.4775 22.3926 12 22.3926C17.5225 22.3926 22 17.9151 22 12.3926C22 11.7221 21.931 11.0676 21.8055 10.4341Z" fill="#FFC107"/>
<path d="M3.15308 7.73808L6.43858 10.1476C7.32758 7.94658 9.48058 6.39258 12.0001 6.39258C13.5296 6.39258 14.9211 6.96958 15.9806 7.91208L18.8091 5.08358C17.0231 3.41908 14.6341 2.39258 12.0001 2.39258C8.15908 2.39258 4.82808 4.56108 3.15308 7.73808Z" fill="#FF3D00"/>
<path d="M11.9999 22.3929C14.5829 22.3929 16.9299 21.4044 18.7044 19.7969L15.6094 17.1779C14.5719 17.9674 13.3037 18.3943 11.9999 18.3929C9.39892 18.3929 7.19041 16.7344 6.35841 14.4199L3.09741 16.9324C4.75241 20.1709 8.11341 22.3929 11.9999 22.3929Z" fill="#4CAF50"/>
<path d="M21.8055 10.4341H21V10.3926H12V14.3926H17.6515C17.2571 15.5008 16.5467 16.4692 15.608 17.1781L15.6095 17.1771L18.7045 19.7961C18.4855 19.9951 22 17.3926 22 12.3926C22 11.7221 21.931 11.0676 21.8055 10.4341Z" fill="#1976D2"/>
</svg>
