<svg width="24" height="23" viewBox="0 0 24 23" fill="none" xmlns="http://www.w3.org/2000/svg">
<path d="M22.5 18.5V11.5C22.5 5.70101 17.799 1 12 1C6.20101 1 1.5 5.70101 1.5 11.5V18.5M4.41667 22C2.80584 22 1.5 20.6942 1.5 19.0833V16.75C1.5 15.1392 2.80584 13.8333 4.41667 13.8333C6.0275 13.8333 7.33333 15.1392 7.33333 16.75V19.0833C7.33333 20.6942 6.0275 22 4.41667 22ZM19.5833 22C17.9725 22 16.6667 20.6942 16.6667 19.0833V16.75C16.6667 15.1392 17.9725 13.8333 19.5833 13.8333C21.1942 13.8333 22.5 15.1392 22.5 16.75V19.0833C22.5 20.6942 21.1942 22 19.5833 22Z" stroke="#77BB77" stroke-width="2" stroke-linecap="round" stroke-linejoin="round"/>
</svg>
