<svg width="28" height="29" viewBox="0 0 28 29" fill="none" xmlns="http://www.w3.org/2000/svg">
<path d="M13.9265 8.74707C10.4697 8.74707 7.60547 11.5619 7.60547 15.0681C7.60547 18.5742 10.4203 21.389 13.9265 21.389C17.4326 21.389 20.2474 18.5248 20.2474 15.0681C20.2474 11.6113 17.3832 8.74707 13.9265 8.74707ZM13.9265 19.1174C11.7042 19.1174 9.87707 17.2903 9.87707 15.0681C9.87707 12.8458 11.7042 11.0187 13.9265 11.0187C16.1487 11.0187 17.9758 12.8458 17.9758 15.0681C17.9758 17.2903 16.1487 19.1174 13.9265 19.1174Z" fill="#77BB77"/>
<path d="M20.4946 10.0302C21.2855 10.0302 21.9267 9.38904 21.9267 8.59811C21.9267 7.80719 21.2855 7.16602 20.4946 7.16602C19.7037 7.16602 19.0625 7.80719 19.0625 8.59811C19.0625 9.38904 19.7037 10.0302 20.4946 10.0302Z" fill="#77BB77"/>
<path d="M24.1982 4.89481C22.9143 3.56147 21.0871 2.87012 19.013 2.87012H8.84018C4.54389 2.87012 1.67969 5.73431 1.67969 10.0306V20.1541C1.67969 22.2775 2.37105 24.1047 3.75376 25.438C5.08709 26.722 6.86487 27.3639 8.88956 27.3639H18.9636C21.0871 27.3639 22.8649 26.6726 24.1488 25.438C25.4822 24.1541 26.1735 22.3269 26.1735 20.2035V10.0306C26.1735 7.95654 25.4822 6.17876 24.1982 4.89481ZM24.0007 20.2035C24.0007 21.7343 23.4575 22.9689 22.5686 23.8084C21.6797 24.6479 20.4451 25.0923 18.9636 25.0923H8.88956C7.40808 25.0923 6.17351 24.6479 5.28463 23.8084C4.39574 22.9195 3.95129 21.6849 3.95129 20.1541V10.0306C3.95129 8.54913 4.39574 7.31456 5.28463 6.42567C6.12413 5.58617 7.40808 5.14172 8.88956 5.14172H19.0624C20.5439 5.14172 21.7785 5.58617 22.6673 6.47506C23.5068 7.36394 24.0007 8.59851 24.0007 10.0306V20.2035Z" fill="#77BB77"/>
</svg>
