<svg width="34" height="24" viewBox="0 0 34 24" fill="none" xmlns="http://www.w3.org/2000/svg">
<rect x="0.5" y="0.5" width="33" height="23" rx="3.5" fill="white"/>
<rect x="0.5" y="0.5" width="33" height="23" rx="3.5" stroke="#F2F4F7"/>
<path fill-rule="evenodd" clip-rule="evenodd" d="M17.179 16.8288C15.9949 17.8268 14.459 18.4293 12.7807 18.4293C9.03582 18.4293 6 15.4296 6 11.7293C6 8.02899 9.03582 5.0293 12.7807 5.0293C14.459 5.0293 15.9949 5.63179 17.179 6.62984C18.363 5.63179 19.8989 5.0293 21.5773 5.0293C25.3221 5.0293 28.358 8.02899 28.358 11.7293C28.358 15.4296 25.3221 18.4293 21.5773 18.4293C19.8989 18.4293 18.363 17.8268 17.179 16.8288Z" fill="#ED0006"/>
<path fill-rule="evenodd" clip-rule="evenodd" d="M17.1797 16.8288C18.6376 15.5999 19.5621 13.7713 19.5621 11.7293C19.5621 9.68734 18.6376 7.85874 17.1797 6.62984C18.3637 5.63179 19.8996 5.0293 21.578 5.0293C25.3228 5.0293 28.3587 8.02899 28.3587 11.7293C28.3587 15.4296 25.3228 18.4293 21.578 18.4293C19.8996 18.4293 18.3637 17.8268 17.1797 16.8288Z" fill="#F9A000"/>
<path fill-rule="evenodd" clip-rule="evenodd" d="M17.1793 16.8278C18.6372 15.5989 19.5616 13.7703 19.5616 11.7283C19.5616 9.6864 18.6372 7.85781 17.1793 6.62891C15.7213 7.85781 14.7969 9.6864 14.7969 11.7283C14.7969 13.7703 15.7213 15.5989 17.1793 16.8278Z" fill="#FF5E00"/>
</svg>
