<svg width="666" height="1024" viewBox="0 0 666 1024" fill="none" xmlns="http://www.w3.org/2000/svg">
<g clip-path="url(#clip0_394_395)">
<path d="M0 0H646C657.046 0 666 8.95431 666 20V1004C666 1015.05 657.046 1024 646 1024H0V0Z" fill="#77BB77"/>
<path d="M681 448.783C-183.339 492 349.38 492 193.765 492C38.1506 492 -88 364.849 -88 208C-88 51.1511 38.1506 -76 193.765 -76C349.38 -76 681 291.934 681 448.783Z" fill="url(#paint0_linear_394_395)"/>
<ellipse cx="548" cy="166" rx="249" ry="262" fill="#61B236"/>
<path d="M0.000175476 516.001H389L659 1022H561H261H0.000175476V678.001V516.001Z" fill="url(#paint1_linear_394_395)"/>
<path d="M128.024 420.608H133.464L138.488 435.392L137.752 435.072L142.136 424.16L144.28 430.528L137.496 445.088L128.024 420.608ZM139.832 420.608H144.44L150.232 434.912L149.4 434.784L153.72 420.608H158.712L149.624 445.024L139.832 420.608ZM166.059 444.384C164.352 444.384 162.902 444.064 161.707 443.424C160.534 442.784 159.638 441.899 159.019 440.768C158.4 439.637 158.091 438.336 158.091 436.864C158.091 435.456 158.454 434.187 159.179 433.056C159.904 431.925 160.875 431.029 162.091 430.368C163.307 429.685 164.662 429.344 166.155 429.344C168.16 429.344 169.803 429.931 171.083 431.104C172.384 432.256 173.227 433.931 173.611 436.128L162.731 439.584L161.739 437.152L169.611 434.496L168.683 434.912C168.512 434.357 168.203 433.877 167.755 433.472C167.328 433.045 166.678 432.832 165.803 432.832C165.142 432.832 164.555 432.992 164.043 433.312C163.552 433.611 163.168 434.048 162.891 434.624C162.635 435.179 162.507 435.84 162.507 436.608C162.507 437.483 162.667 438.219 162.987 438.816C163.307 439.392 163.744 439.829 164.299 440.128C164.854 440.427 165.472 440.576 166.155 440.576C166.646 440.576 167.115 440.491 167.563 440.32C168.032 440.149 168.491 439.925 168.939 439.648L170.923 442.976C170.176 443.403 169.366 443.744 168.491 444C167.638 444.256 166.827 444.384 166.059 444.384ZM176.867 418.752H181.347V444H176.867V418.752ZM197.832 442.752C197.214 443.243 196.435 443.637 195.496 443.936C194.579 444.235 193.672 444.384 192.776 444.384C191.176 444.384 189.779 444.096 188.584 443.52C187.411 442.923 186.494 442.08 185.832 440.992C185.192 439.883 184.872 438.549 184.872 436.992C184.872 435.435 185.224 434.112 185.928 433.024C186.632 431.915 187.55 431.072 188.68 430.496C189.832 429.92 191.038 429.632 192.296 429.632C193.555 429.632 194.643 429.803 195.56 430.144C196.499 430.485 197.299 430.933 197.96 431.488L195.784 434.368C195.486 434.133 195.07 433.899 194.536 433.664C194.024 433.408 193.416 433.28 192.712 433.28C192.094 433.28 191.528 433.44 191.016 433.76C190.504 434.08 190.099 434.517 189.8 435.072C189.502 435.627 189.352 436.267 189.352 436.992C189.352 437.675 189.512 438.304 189.832 438.88C190.152 439.456 190.59 439.915 191.144 440.256C191.72 440.576 192.392 440.736 193.16 440.736C193.651 440.736 194.099 440.672 194.504 440.544C194.931 440.395 195.294 440.192 195.592 439.936L197.832 442.752ZM200.185 436.832C200.185 435.403 200.515 434.123 201.177 432.992C201.859 431.861 202.809 430.976 204.025 430.336C205.241 429.675 206.638 429.344 208.217 429.344C209.817 429.344 211.203 429.675 212.377 430.336C213.55 430.976 214.446 431.861 215.065 432.992C215.705 434.123 216.025 435.403 216.025 436.832C216.025 438.261 215.705 439.552 215.065 440.704C214.446 441.835 213.55 442.731 212.377 443.392C211.203 444.053 209.795 444.384 208.153 444.384C206.617 444.384 205.241 444.085 204.025 443.488C202.83 442.891 201.891 442.027 201.209 440.896C200.526 439.765 200.185 438.411 200.185 436.832ZM204.697 436.864C204.697 437.589 204.846 438.251 205.145 438.848C205.443 439.424 205.849 439.883 206.361 440.224C206.873 440.565 207.449 440.736 208.089 440.736C208.793 440.736 209.401 440.565 209.913 440.224C210.425 439.883 210.819 439.424 211.097 438.848C211.374 438.251 211.513 437.589 211.513 436.864C211.513 436.117 211.374 435.456 211.097 434.88C210.819 434.304 210.425 433.845 209.913 433.504C209.401 433.163 208.793 432.992 208.089 432.992C207.449 432.992 206.873 433.163 206.361 433.504C205.849 433.845 205.443 434.304 205.145 434.88C204.846 435.456 204.697 436.117 204.697 436.864ZM223.618 430.016L223.97 432.48L223.906 432.288C224.461 431.349 225.154 430.624 225.986 430.112C226.818 429.579 227.821 429.312 228.994 429.312C229.762 429.312 230.434 429.419 231.01 429.632C231.607 429.845 232.109 430.165 232.514 430.592C232.919 430.997 233.197 431.531 233.346 432.192L233.186 432.224C233.783 431.349 234.498 430.645 235.33 430.112C236.183 429.579 237.069 429.312 237.986 429.312C239.373 429.312 240.471 429.707 241.282 430.496C242.114 431.264 242.541 432.267 242.562 433.504V444H238.114V435.36C238.093 434.741 237.997 434.24 237.826 433.856C237.655 433.451 237.261 433.227 236.642 433.184C235.917 433.184 235.298 433.44 234.786 433.952C234.295 434.443 233.922 435.083 233.666 435.872C233.431 436.64 233.314 437.44 233.314 438.272V444H228.834V435.36C228.813 434.741 228.695 434.24 228.482 433.856C228.29 433.451 227.885 433.227 227.266 433.184C226.562 433.184 225.965 433.44 225.474 433.952C225.005 434.443 224.642 435.072 224.386 435.84C224.151 436.608 224.034 437.397 224.034 438.208V444H219.554V430.016H223.618ZM254.059 444.384C252.352 444.384 250.902 444.064 249.707 443.424C248.534 442.784 247.638 441.899 247.019 440.768C246.4 439.637 246.091 438.336 246.091 436.864C246.091 435.456 246.454 434.187 247.179 433.056C247.904 431.925 248.875 431.029 250.091 430.368C251.307 429.685 252.662 429.344 254.155 429.344C256.16 429.344 257.803 429.931 259.083 431.104C260.384 432.256 261.227 433.931 261.611 436.128L250.731 439.584L249.739 437.152L257.611 434.496L256.683 434.912C256.512 434.357 256.203 433.877 255.755 433.472C255.328 433.045 254.678 432.832 253.803 432.832C253.142 432.832 252.555 432.992 252.043 433.312C251.552 433.611 251.168 434.048 250.891 434.624C250.635 435.179 250.507 435.84 250.507 436.608C250.507 437.483 250.667 438.219 250.987 438.816C251.307 439.392 251.744 439.829 252.299 440.128C252.854 440.427 253.472 440.576 254.155 440.576C254.646 440.576 255.115 440.491 255.563 440.32C256.032 440.149 256.491 439.925 256.939 439.648L258.923 442.976C258.176 443.403 257.366 443.744 256.491 444C255.638 444.256 254.827 444.384 254.059 444.384ZM276.585 423.872H281.065V429.952H284.457V433.44H281.065V444H276.585V433.44H274.409V429.952H276.585V423.872ZM286.779 436.832C286.779 435.403 287.109 434.123 287.771 432.992C288.453 431.861 289.403 430.976 290.619 430.336C291.835 429.675 293.232 429.344 294.811 429.344C296.411 429.344 297.797 429.675 298.971 430.336C300.144 430.976 301.04 431.861 301.659 432.992C302.299 434.123 302.619 435.403 302.619 436.832C302.619 438.261 302.299 439.552 301.659 440.704C301.04 441.835 300.144 442.731 298.971 443.392C297.797 444.053 296.389 444.384 294.747 444.384C293.211 444.384 291.835 444.085 290.619 443.488C289.424 442.891 288.485 442.027 287.803 440.896C287.12 439.765 286.779 438.411 286.779 436.832ZM291.291 436.864C291.291 437.589 291.44 438.251 291.739 438.848C292.037 439.424 292.443 439.883 292.955 440.224C293.467 440.565 294.043 440.736 294.683 440.736C295.387 440.736 295.995 440.565 296.507 440.224C297.019 439.883 297.413 439.424 297.691 438.848C297.968 438.251 298.107 437.589 298.107 436.864C298.107 436.117 297.968 435.456 297.691 434.88C297.413 434.304 297.019 433.845 296.507 433.504C295.995 433.163 295.387 432.992 294.683 432.992C294.043 432.992 293.467 433.163 292.955 433.504C292.443 433.845 292.037 434.304 291.739 434.88C291.44 435.456 291.291 436.117 291.291 436.864ZM317.29 420.448H333.354V424.928H321.93V429.952H332.042V434.432H321.93V439.52H333.802V444H317.29V420.448ZM349.739 442.752C349.12 443.243 348.341 443.637 347.403 443.936C346.485 444.235 345.579 444.384 344.683 444.384C343.083 444.384 341.685 444.096 340.491 443.52C339.317 442.923 338.4 442.08 337.739 440.992C337.099 439.883 336.779 438.549 336.779 436.992C336.779 435.435 337.131 434.112 337.835 433.024C338.539 431.915 339.456 431.072 340.587 430.496C341.739 429.92 342.944 429.632 344.203 429.632C345.461 429.632 346.549 429.803 347.467 430.144C348.405 430.485 349.205 430.933 349.867 431.488L347.691 434.368C347.392 434.133 346.976 433.899 346.443 433.664C345.931 433.408 345.323 433.28 344.619 433.28C344 433.28 343.435 433.44 342.923 433.76C342.411 434.08 342.005 434.517 341.707 435.072C341.408 435.627 341.259 436.267 341.259 436.992C341.259 437.675 341.419 438.304 341.739 438.88C342.059 439.456 342.496 439.915 343.051 440.256C343.627 440.576 344.299 440.736 345.067 440.736C345.557 440.736 346.005 440.672 346.411 440.544C346.837 440.395 347.2 440.192 347.499 439.936L349.739 442.752ZM352.091 436.832C352.091 435.403 352.422 434.123 353.083 432.992C353.766 431.861 354.715 430.976 355.931 430.336C357.147 429.675 358.544 429.344 360.123 429.344C361.723 429.344 363.11 429.675 364.283 430.336C365.456 430.976 366.352 431.861 366.971 432.992C367.611 434.123 367.931 435.403 367.931 436.832C367.931 438.261 367.611 439.552 366.971 440.704C366.352 441.835 365.456 442.731 364.283 443.392C363.11 444.053 361.702 444.384 360.059 444.384C358.523 444.384 357.147 444.085 355.931 443.488C354.736 442.891 353.798 442.027 353.115 440.896C352.432 439.765 352.091 438.411 352.091 436.832ZM356.603 436.864C356.603 437.589 356.752 438.251 357.051 438.848C357.35 439.424 357.755 439.883 358.267 440.224C358.779 440.565 359.355 440.736 359.995 440.736C360.699 440.736 361.307 440.565 361.819 440.224C362.331 439.883 362.726 439.424 363.003 438.848C363.28 438.251 363.419 437.589 363.419 436.864C363.419 436.117 363.28 435.456 363.003 434.88C362.726 434.304 362.331 433.845 361.819 433.504C361.307 433.163 360.699 432.992 359.995 432.992C359.355 432.992 358.779 433.163 358.267 433.504C357.755 433.845 357.35 434.304 357.051 434.88C356.752 435.456 356.603 436.117 356.603 436.864ZM370.884 434.72H376.9V438.624H370.884V434.72ZM389.114 420.448C390.586 420.448 391.898 420.64 393.05 421.024C394.202 421.387 395.162 421.92 395.93 422.624C396.719 423.307 397.316 424.139 397.722 425.12C398.127 426.08 398.33 427.168 398.33 428.384C398.33 429.344 398.18 430.304 397.882 431.264C397.604 432.224 397.135 433.099 396.474 433.888C395.834 434.677 394.98 435.317 393.914 435.808C392.847 436.277 391.524 436.512 389.946 436.512H386.618V444H381.978V420.448H389.114ZM389.914 432.032C390.618 432.032 391.204 431.915 391.674 431.68C392.143 431.445 392.506 431.147 392.762 430.784C393.039 430.421 393.231 430.048 393.338 429.664C393.466 429.259 393.53 428.885 393.53 428.544C393.53 428.288 393.487 427.968 393.402 427.584C393.338 427.179 393.188 426.773 392.954 426.368C392.719 425.963 392.356 425.621 391.866 425.344C391.396 425.067 390.756 424.928 389.946 424.928H386.618V432.032H389.914ZM394.266 434.912L400.09 444H394.682L388.73 435.04L394.266 434.912ZM403.179 430.016H407.659V444H403.179V430.016ZM403.083 425.056C403.083 424.395 403.339 423.851 403.851 423.424C404.384 422.997 404.95 422.784 405.547 422.784C406.144 422.784 406.688 422.997 407.179 423.424C407.691 423.851 407.947 424.395 407.947 425.056C407.947 425.717 407.691 426.261 407.179 426.688C406.688 427.093 406.144 427.296 405.547 427.296C404.95 427.296 404.384 427.093 403.851 426.688C403.339 426.261 403.083 425.717 403.083 425.056ZM417.969 444.384C416.667 444.384 415.505 444.085 414.481 443.488C413.457 442.869 412.646 441.984 412.049 440.832C411.473 439.68 411.185 438.315 411.185 436.736C411.185 435.157 411.505 433.813 412.145 432.704C412.785 431.595 413.659 430.752 414.769 430.176C415.878 429.6 417.137 429.312 418.545 429.312C419.441 429.312 420.294 429.451 421.105 429.728C421.937 430.005 422.63 430.432 423.185 431.008V432.416V418.752H427.633V444H423.153V441.28L423.505 442.24C422.779 442.837 421.969 443.349 421.073 443.776C420.177 444.181 419.142 444.384 417.969 444.384ZM419.441 440.608C420.038 440.608 420.561 440.533 421.009 440.384C421.478 440.213 421.883 439.979 422.225 439.68C422.587 439.36 422.897 438.965 423.153 438.496V435.072C422.982 434.603 422.715 434.208 422.353 433.888C422.011 433.547 421.585 433.291 421.073 433.12C420.582 432.928 420.038 432.832 419.441 432.832C418.779 432.832 418.161 433.003 417.585 433.344C417.03 433.664 416.582 434.112 416.241 434.688C415.899 435.264 415.729 435.925 415.729 436.672C415.729 437.419 415.899 438.091 416.241 438.688C416.582 439.285 417.03 439.755 417.585 440.096C418.161 440.437 418.779 440.608 419.441 440.608ZM439.122 444.384C437.415 444.384 435.964 444.064 434.77 443.424C433.596 442.784 432.7 441.899 432.082 440.768C431.463 439.637 431.154 438.336 431.154 436.864C431.154 435.456 431.516 434.187 432.242 433.056C432.967 431.925 433.938 431.029 435.154 430.368C436.37 429.685 437.724 429.344 439.218 429.344C441.223 429.344 442.866 429.931 444.146 431.104C445.447 432.256 446.289 433.931 446.674 436.128L435.794 439.584L434.802 437.152L442.674 434.496L441.746 434.912C441.575 434.357 441.266 433.877 440.818 433.472C440.391 433.045 439.74 432.832 438.866 432.832C438.204 432.832 437.618 432.992 437.106 433.312C436.615 433.611 436.231 434.048 435.954 434.624C435.698 435.179 435.57 435.84 435.57 436.608C435.57 437.483 435.73 438.219 436.05 438.816C436.37 439.392 436.807 439.829 437.362 440.128C437.916 440.427 438.535 440.576 439.218 440.576C439.708 440.576 440.178 440.491 440.626 440.32C441.095 440.149 441.554 439.925 442.002 439.648L443.986 442.976C443.239 443.403 442.428 443.744 441.554 444C440.7 444.256 439.89 444.384 439.122 444.384ZM461.263 450.752L458.671 447.968C459.311 447.499 459.802 446.923 460.143 446.24C460.506 445.557 460.687 444.725 460.687 443.744V430.016H465.167V444C465.167 445.664 464.869 447.04 464.271 448.128C463.674 449.237 462.671 450.112 461.263 450.752ZM460.527 425.056C460.527 424.395 460.783 423.851 461.295 423.424C461.829 422.997 462.394 422.784 462.991 422.784C463.589 422.784 464.133 422.997 464.623 423.424C465.135 423.851 465.391 424.395 465.391 425.056C465.391 425.717 465.135 426.261 464.623 426.688C464.133 427.093 463.589 427.296 462.991 427.296C462.394 427.296 461.829 427.093 461.295 426.688C460.783 426.261 460.527 425.717 460.527 425.056ZM468.685 436.832C468.685 435.403 469.015 434.123 469.677 432.992C470.359 431.861 471.309 430.976 472.525 430.336C473.741 429.675 475.138 429.344 476.717 429.344C478.317 429.344 479.703 429.675 480.877 430.336C482.05 430.976 482.946 431.861 483.565 432.992C484.205 434.123 484.525 435.403 484.525 436.832C484.525 438.261 484.205 439.552 483.565 440.704C482.946 441.835 482.05 442.731 480.877 443.392C479.703 444.053 478.295 444.384 476.653 444.384C475.117 444.384 473.741 444.085 472.525 443.488C471.33 442.891 470.391 442.027 469.709 440.896C469.026 439.765 468.685 438.411 468.685 436.832ZM473.197 436.864C473.197 437.589 473.346 438.251 473.645 438.848C473.943 439.424 474.349 439.883 474.861 440.224C475.373 440.565 475.949 440.736 476.589 440.736C477.293 440.736 477.901 440.565 478.413 440.224C478.925 439.883 479.319 439.424 479.597 438.848C479.874 438.251 480.013 437.589 480.013 436.864C480.013 436.117 479.874 435.456 479.597 434.88C479.319 434.304 478.925 433.845 478.413 433.504C477.901 433.163 477.293 432.992 476.589 432.992C475.949 432.992 475.373 433.163 474.861 433.504C474.349 433.845 473.943 434.304 473.645 434.88C473.346 435.456 473.197 436.117 473.197 436.864ZM488.054 430.016H492.534V444H488.054V430.016ZM487.958 425.056C487.958 424.395 488.214 423.851 488.726 423.424C489.259 422.997 489.825 422.784 490.422 422.784C491.019 422.784 491.563 422.997 492.054 423.424C492.566 423.851 492.822 424.395 492.822 425.056C492.822 425.717 492.566 426.261 492.054 426.688C491.563 427.093 491.019 427.296 490.422 427.296C489.825 427.296 489.259 427.093 488.726 426.688C488.214 426.261 487.958 425.717 487.958 425.056ZM501.212 430.016L501.564 432.512L501.5 432.288C501.99 431.413 502.684 430.709 503.58 430.176C504.476 429.621 505.574 429.344 506.876 429.344C508.198 429.344 509.297 429.739 510.172 430.528C511.068 431.296 511.526 432.299 511.548 433.536V444H507.068V435.2C507.046 434.581 506.876 434.091 506.556 433.728C506.257 433.344 505.745 433.152 505.02 433.152C504.337 433.152 503.74 433.376 503.228 433.824C502.716 434.272 502.321 434.88 502.044 435.648C501.766 436.416 501.628 437.301 501.628 438.304V444H497.148V430.016H501.212ZM531.066 444.672C529.807 444.672 528.751 444.288 527.898 443.52C527.045 442.731 526.597 441.717 526.554 440.48V430.016H531.034V438.816C531.077 439.435 531.237 439.936 531.514 440.32C531.791 440.683 532.261 440.864 532.922 440.864C533.583 440.864 534.149 440.64 534.618 440.192C535.109 439.744 535.482 439.136 535.738 438.368C536.015 437.579 536.154 436.693 536.154 435.712V430.016H540.634V444H536.57L536.218 441.44L536.282 441.728C535.962 442.304 535.557 442.816 535.066 443.264C534.575 443.712 533.989 444.053 533.306 444.288C532.645 444.544 531.898 444.672 531.066 444.672ZM549.786 444.288C548.634 444.288 547.556 444.085 546.554 443.68C545.572 443.275 544.74 442.709 544.058 441.984L545.914 439.52C546.596 440.139 547.226 440.587 547.802 440.864C548.399 441.12 548.932 441.248 549.402 441.248C549.764 441.248 550.084 441.216 550.362 441.152C550.66 441.067 550.895 440.949 551.066 440.8C551.236 440.629 551.322 440.416 551.322 440.16C551.322 439.797 551.172 439.509 550.874 439.296C550.596 439.083 550.234 438.912 549.786 438.784C549.338 438.635 548.858 438.485 548.346 438.336C547.066 437.931 546.138 437.344 545.562 436.576C545.007 435.787 544.73 434.933 544.73 434.016C544.73 433.312 544.911 432.608 545.274 431.904C545.658 431.179 546.255 430.581 547.066 430.112C547.898 429.621 548.964 429.376 550.266 429.376C551.439 429.376 552.431 429.493 553.242 429.728C554.052 429.963 554.82 430.347 555.546 430.88L553.85 433.504C553.444 433.184 552.986 432.917 552.474 432.704C551.983 432.469 551.524 432.341 551.098 432.32C550.714 432.299 550.383 432.341 550.106 432.448C549.85 432.555 549.647 432.693 549.498 432.864C549.348 433.035 549.274 433.216 549.274 433.408C549.252 433.813 549.402 434.133 549.722 434.368C550.063 434.603 550.49 434.784 551.002 434.912C551.514 435.04 552.015 435.189 552.506 435.36C553.188 435.573 553.775 435.861 554.266 436.224C554.756 436.587 555.13 437.024 555.386 437.536C555.663 438.027 555.802 438.624 555.802 439.328C555.802 440.181 555.578 440.992 555.13 441.76C554.703 442.507 554.042 443.115 553.146 443.584C552.271 444.053 551.151 444.288 549.786 444.288ZM569.96 430.016H574.44V444H569.96V430.016ZM569.864 425.056C569.864 424.395 570.12 423.851 570.632 423.424C571.166 422.997 571.731 422.784 572.328 422.784C572.926 422.784 573.47 422.997 573.96 423.424C574.472 423.851 574.728 424.395 574.728 425.056C574.728 425.717 574.472 426.261 573.96 426.688C573.47 427.093 572.926 427.296 572.328 427.296C571.731 427.296 571.166 427.093 570.632 426.688C570.12 426.261 569.864 425.717 569.864 425.056ZM583.118 430.016L583.47 432.512L583.406 432.288C583.897 431.413 584.59 430.709 585.486 430.176C586.382 429.621 587.481 429.344 588.782 429.344C590.105 429.344 591.203 429.739 592.078 430.528C592.974 431.296 593.433 432.299 593.454 433.536V444H588.974V435.2C588.953 434.581 588.782 434.091 588.462 433.728C588.163 433.344 587.651 433.152 586.926 433.152C586.243 433.152 585.646 433.376 585.134 433.824C584.622 434.272 584.227 434.88 583.95 435.648C583.673 436.416 583.534 437.301 583.534 438.304V444H579.054V430.016H583.118ZM133.368 468.016L133.72 470.48L133.656 470.288C134.211 469.349 134.904 468.624 135.736 468.112C136.568 467.579 137.571 467.312 138.744 467.312C139.512 467.312 140.184 467.419 140.76 467.632C141.357 467.845 141.859 468.165 142.264 468.592C142.669 468.997 142.947 469.531 143.096 470.192L142.936 470.224C143.533 469.349 144.248 468.645 145.08 468.112C145.933 467.579 146.819 467.312 147.736 467.312C149.123 467.312 150.221 467.707 151.032 468.496C151.864 469.264 152.291 470.267 152.312 471.504V482H147.864V473.36C147.843 472.741 147.747 472.24 147.576 471.856C147.405 471.451 147.011 471.227 146.392 471.184C145.667 471.184 145.048 471.44 144.536 471.952C144.045 472.443 143.672 473.083 143.416 473.872C143.181 474.64 143.064 475.44 143.064 476.272V482H138.584V473.36C138.563 472.741 138.445 472.24 138.232 471.856C138.04 471.451 137.635 471.227 137.016 471.184C136.312 471.184 135.715 471.44 135.224 471.952C134.755 472.443 134.392 473.072 134.136 473.84C133.901 474.608 133.784 475.397 133.784 476.208V482H129.304V468.016H133.368ZM162.817 482.384C161.516 482.384 160.332 482.128 159.265 481.616C158.22 481.083 157.388 480.272 156.769 479.184C156.15 478.096 155.841 476.709 155.841 475.024C155.841 473.445 156.161 472.08 156.801 470.928C157.441 469.776 158.284 468.891 159.329 468.272C160.374 467.632 161.484 467.312 162.657 467.312C164.044 467.312 165.089 467.547 165.793 468.016C166.518 468.464 167.116 468.965 167.585 469.52L167.393 470.064L167.809 468.016H171.969V482H167.489V478.96L167.841 479.92C167.798 479.92 167.67 480.048 167.457 480.304C167.244 480.539 166.924 480.827 166.497 481.168C166.092 481.488 165.58 481.765 164.961 482C164.364 482.256 163.649 482.384 162.817 482.384ZM164.097 478.736C164.63 478.736 165.11 478.661 165.537 478.512C165.964 478.341 166.337 478.107 166.657 477.808C166.977 477.488 167.254 477.093 167.489 476.624V473.2C167.318 472.731 167.062 472.336 166.721 472.016C166.38 471.675 165.974 471.419 165.505 471.248C165.036 471.056 164.513 470.96 163.937 470.96C163.297 470.96 162.7 471.131 162.145 471.472C161.612 471.792 161.185 472.24 160.865 472.816C160.545 473.392 160.385 474.053 160.385 474.8C160.385 475.547 160.556 476.219 160.897 476.816C161.238 477.413 161.686 477.883 162.241 478.224C162.817 478.565 163.436 478.736 164.097 478.736ZM176.585 482V456.752H181.065V482H176.585ZM184.617 472.496L190.953 482H185.737L181.673 475.056L184.617 472.496ZM179.721 478.128L179.273 473.872L187.721 467.664L190.441 470.064L179.721 478.128ZM194.054 468.016H198.534V482H194.054V468.016ZM193.958 463.056C193.958 462.395 194.214 461.851 194.726 461.424C195.259 460.997 195.825 460.784 196.422 460.784C197.019 460.784 197.563 460.997 198.054 461.424C198.566 461.851 198.822 462.395 198.822 463.056C198.822 463.717 198.566 464.261 198.054 464.688C197.563 465.093 197.019 465.296 196.422 465.296C195.825 465.296 195.259 465.093 194.726 464.688C194.214 464.261 193.958 463.717 193.958 463.056ZM207.212 468.016L207.564 470.512L207.5 470.288C207.99 469.413 208.684 468.709 209.58 468.176C210.476 467.621 211.574 467.344 212.876 467.344C214.198 467.344 215.297 467.739 216.172 468.528C217.068 469.296 217.526 470.299 217.548 471.536V482H213.068V473.2C213.046 472.581 212.876 472.091 212.556 471.728C212.257 471.344 211.745 471.152 211.02 471.152C210.337 471.152 209.74 471.376 209.228 471.824C208.716 472.272 208.321 472.88 208.044 473.648C207.766 474.416 207.628 475.301 207.628 476.304V482H203.148V468.016H207.212ZM229.38 489.04C228.121 489.04 227.054 488.891 226.18 488.592C225.326 488.293 224.601 487.931 224.004 487.504C223.406 487.077 222.873 486.672 222.404 486.288L225.028 483.216C225.518 483.664 226.084 484.091 226.724 484.496C227.385 484.923 228.249 485.136 229.316 485.136C230.02 485.136 230.67 485.008 231.268 484.752C231.886 484.517 232.377 484.165 232.74 483.696C233.124 483.227 233.316 482.64 233.316 481.936V478.864L233.476 479.664C233.134 480.389 232.516 481.029 231.62 481.584C230.724 482.117 229.55 482.384 228.1 482.384C226.841 482.384 225.668 482.064 224.58 481.424C223.513 480.763 222.66 479.877 222.02 478.768C221.38 477.637 221.06 476.357 221.06 474.928C221.06 473.456 221.401 472.155 222.084 471.024C222.766 469.872 223.652 468.965 224.74 468.304C225.828 467.643 226.98 467.312 228.196 467.312C229.412 467.312 230.457 467.493 231.332 467.856C232.228 468.197 232.9 468.624 233.348 469.136L233.188 469.552L233.668 468.016H237.796V482C237.796 483.365 237.412 484.571 236.644 485.616C235.876 486.683 234.852 487.515 233.572 488.112C232.313 488.731 230.916 489.04 229.38 489.04ZM225.572 474.8C225.572 475.547 225.742 476.219 226.084 476.816C226.425 477.413 226.884 477.883 227.46 478.224C228.057 478.565 228.718 478.736 229.444 478.736C230.062 478.736 230.606 478.661 231.076 478.512C231.566 478.341 231.993 478.107 232.356 477.808C232.74 477.488 233.06 477.093 233.316 476.624V473.2C233.124 472.731 232.836 472.336 232.452 472.016C232.068 471.675 231.62 471.419 231.108 471.248C230.617 471.056 230.062 470.96 229.444 470.96C228.718 470.96 228.057 471.131 227.46 471.472C226.884 471.792 226.425 472.24 226.084 472.816C225.742 473.392 225.572 474.053 225.572 474.8ZM258.692 482.384C257.391 482.384 256.207 482.128 255.14 481.616C254.095 481.083 253.263 480.272 252.644 479.184C252.025 478.096 251.716 476.709 251.716 475.024C251.716 473.445 252.036 472.08 252.676 470.928C253.316 469.776 254.159 468.891 255.204 468.272C256.249 467.632 257.359 467.312 258.532 467.312C259.919 467.312 260.964 467.547 261.668 468.016C262.393 468.464 262.991 468.965 263.46 469.52L263.268 470.064L263.684 468.016H267.844V482H263.364V478.96L263.716 479.92C263.673 479.92 263.545 480.048 263.332 480.304C263.119 480.539 262.799 480.827 262.372 481.168C261.967 481.488 261.455 481.765 260.836 482C260.239 482.256 259.524 482.384 258.692 482.384ZM259.972 478.736C260.505 478.736 260.985 478.661 261.412 478.512C261.839 478.341 262.212 478.107 262.532 477.808C262.852 477.488 263.129 477.093 263.364 476.624V473.2C263.193 472.731 262.937 472.336 262.596 472.016C262.255 471.675 261.849 471.419 261.38 471.248C260.911 471.056 260.388 470.96 259.812 470.96C259.172 470.96 258.575 471.131 258.02 471.472C257.487 471.792 257.06 472.24 256.74 472.816C256.42 473.392 256.26 474.053 256.26 474.8C256.26 475.547 256.431 476.219 256.772 476.816C257.113 477.413 257.561 477.883 258.116 478.224C258.692 478.565 259.311 478.736 259.972 478.736ZM288.562 482.384C287.261 482.384 286.099 482.085 285.075 481.488C284.051 480.869 283.24 479.984 282.643 478.832C282.067 477.68 281.779 476.315 281.779 474.736C281.779 473.157 282.099 471.813 282.739 470.704C283.379 469.595 284.253 468.752 285.363 468.176C286.472 467.6 287.731 467.312 289.139 467.312C290.035 467.312 290.888 467.451 291.699 467.728C292.531 468.005 293.224 468.432 293.779 469.008V470.416V456.752H298.227V482H293.747V479.28L294.099 480.24C293.373 480.837 292.563 481.349 291.667 481.776C290.771 482.181 289.736 482.384 288.562 482.384ZM290.035 478.608C290.632 478.608 291.155 478.533 291.603 478.384C292.072 478.213 292.477 477.979 292.819 477.68C293.181 477.36 293.491 476.965 293.747 476.496V473.072C293.576 472.603 293.309 472.208 292.947 471.888C292.605 471.547 292.179 471.291 291.667 471.12C291.176 470.928 290.632 470.832 290.035 470.832C289.373 470.832 288.755 471.003 288.179 471.344C287.624 471.664 287.176 472.112 286.835 472.688C286.493 473.264 286.323 473.925 286.323 474.672C286.323 475.419 286.493 476.091 286.835 476.688C287.176 477.285 287.624 477.755 288.179 478.096C288.755 478.437 289.373 478.608 290.035 478.608ZM302.835 468.016H307.315V482H302.835V468.016ZM302.739 463.056C302.739 462.395 302.995 461.851 303.507 461.424C304.041 460.997 304.606 460.784 305.203 460.784C305.801 460.784 306.345 460.997 306.835 461.424C307.347 461.851 307.603 462.395 307.603 463.056C307.603 463.717 307.347 464.261 306.835 464.688C306.345 465.093 305.801 465.296 305.203 465.296C304.606 465.296 304.041 465.093 303.507 464.688C302.995 464.261 302.739 463.717 302.739 463.056ZM313.273 482V471.92H310.905V467.952H313.273V463.088C313.273 461.253 313.796 459.76 314.841 458.608C315.908 457.435 317.444 456.848 319.449 456.848C320.046 456.848 320.708 456.944 321.433 457.136C322.18 457.307 322.83 457.595 323.385 458L321.497 461.232C321.284 460.955 321.028 460.773 320.729 460.688C320.452 460.581 320.185 460.528 319.929 460.528C319.289 460.528 318.766 460.741 318.361 461.168C317.956 461.595 317.753 462.277 317.753 463.216V467.952H321.977V471.92H317.753V482H313.273ZM323.609 482V471.92H321.241V467.952H323.609V463.088C323.609 461.253 324.132 459.76 325.177 458.608C326.244 457.435 327.78 456.848 329.785 456.848C330.382 456.848 331.044 456.944 331.769 457.136C332.516 457.307 333.166 457.595 333.721 458L331.833 461.232C331.62 460.955 331.364 460.773 331.065 460.688C330.788 460.581 330.521 460.528 330.265 460.528C329.625 460.528 329.102 460.741 328.697 461.168C328.292 461.595 328.089 462.277 328.089 463.216V467.952H332.313V471.92H328.089V482H323.609ZM342.747 482.384C341.04 482.384 339.589 482.064 338.395 481.424C337.221 480.784 336.325 479.899 335.707 478.768C335.088 477.637 334.779 476.336 334.779 474.864C334.779 473.456 335.141 472.187 335.867 471.056C336.592 469.925 337.563 469.029 338.779 468.368C339.995 467.685 341.349 467.344 342.843 467.344C344.848 467.344 346.491 467.931 347.771 469.104C349.072 470.256 349.914 471.931 350.299 474.128L339.419 477.584L338.427 475.152L346.299 472.496L345.371 472.912C345.2 472.357 344.891 471.877 344.443 471.472C344.016 471.045 343.365 470.832 342.491 470.832C341.829 470.832 341.243 470.992 340.731 471.312C340.24 471.611 339.856 472.048 339.579 472.624C339.323 473.179 339.195 473.84 339.195 474.608C339.195 475.483 339.355 476.219 339.675 476.816C339.995 477.392 340.432 477.829 340.987 478.128C341.541 478.427 342.16 478.576 342.843 478.576C343.333 478.576 343.803 478.491 344.251 478.32C344.72 478.149 345.179 477.925 345.627 477.648L347.611 480.976C346.864 481.403 346.053 481.744 345.179 482C344.325 482.256 343.515 482.384 342.747 482.384ZM357.586 468.016L358.002 471.856L357.906 471.28C358.311 470.448 358.866 469.744 359.57 469.168C360.274 468.571 360.967 468.112 361.65 467.792C362.354 467.472 362.887 467.312 363.25 467.312L363.026 471.792C361.981 471.664 361.085 471.835 360.338 472.304C359.591 472.773 359.015 473.392 358.61 474.16C358.205 474.928 358.002 475.717 358.002 476.528V482H353.554V468.016H357.586ZM372.934 482.384C371.227 482.384 369.777 482.064 368.582 481.424C367.409 480.784 366.513 479.899 365.894 478.768C365.275 477.637 364.966 476.336 364.966 474.864C364.966 473.456 365.329 472.187 366.054 471.056C366.779 469.925 367.75 469.029 368.966 468.368C370.182 467.685 371.537 467.344 373.03 467.344C375.035 467.344 376.678 467.931 377.958 469.104C379.259 470.256 380.102 471.931 380.486 474.128L369.606 477.584L368.614 475.152L376.486 472.496L375.558 472.912C375.387 472.357 375.078 471.877 374.63 471.472C374.203 471.045 373.553 470.832 372.678 470.832C372.017 470.832 371.43 470.992 370.918 471.312C370.427 471.611 370.043 472.048 369.766 472.624C369.51 473.179 369.382 473.84 369.382 474.608C369.382 475.483 369.542 476.219 369.862 476.816C370.182 477.392 370.619 477.829 371.174 478.128C371.729 478.427 372.347 478.576 373.03 478.576C373.521 478.576 373.99 478.491 374.438 478.32C374.907 478.149 375.366 477.925 375.814 477.648L377.798 480.976C377.051 481.403 376.241 481.744 375.366 482C374.513 482.256 373.702 482.384 372.934 482.384ZM387.806 468.016L388.158 470.512L388.094 470.288C388.584 469.413 389.278 468.709 390.174 468.176C391.07 467.621 392.168 467.344 393.47 467.344C394.792 467.344 395.891 467.739 396.766 468.528C397.662 469.296 398.12 470.299 398.142 471.536V482H393.662V473.2C393.64 472.581 393.47 472.091 393.15 471.728C392.851 471.344 392.339 471.152 391.614 471.152C390.931 471.152 390.334 471.376 389.822 471.824C389.31 472.272 388.915 472.88 388.638 473.648C388.36 474.416 388.222 475.301 388.222 476.304V482H383.742V468.016H387.806ZM414.614 480.752C413.995 481.243 413.216 481.637 412.278 481.936C411.36 482.235 410.454 482.384 409.558 482.384C407.958 482.384 406.56 482.096 405.366 481.52C404.192 480.923 403.275 480.08 402.614 478.992C401.974 477.883 401.654 476.549 401.654 474.992C401.654 473.435 402.006 472.112 402.71 471.024C403.414 469.915 404.331 469.072 405.462 468.496C406.614 467.92 407.819 467.632 409.078 467.632C410.336 467.632 411.424 467.803 412.342 468.144C413.28 468.485 414.08 468.933 414.742 469.488L412.566 472.368C412.267 472.133 411.851 471.899 411.318 471.664C410.806 471.408 410.198 471.28 409.494 471.28C408.875 471.28 408.31 471.44 407.798 471.76C407.286 472.08 406.88 472.517 406.582 473.072C406.283 473.627 406.134 474.267 406.134 474.992C406.134 475.675 406.294 476.304 406.614 476.88C406.934 477.456 407.371 477.915 407.926 478.256C408.502 478.576 409.174 478.736 409.942 478.736C410.432 478.736 410.88 478.672 411.286 478.544C411.712 478.395 412.075 478.192 412.374 477.936L414.614 480.752ZM424.934 482.384C423.227 482.384 421.777 482.064 420.582 481.424C419.409 480.784 418.513 479.899 417.894 478.768C417.275 477.637 416.966 476.336 416.966 474.864C416.966 473.456 417.329 472.187 418.054 471.056C418.779 469.925 419.75 469.029 420.966 468.368C422.182 467.685 423.537 467.344 425.03 467.344C427.035 467.344 428.678 467.931 429.958 469.104C431.259 470.256 432.102 471.931 432.486 474.128L421.606 477.584L420.614 475.152L428.486 472.496L427.558 472.912C427.387 472.357 427.078 471.877 426.63 471.472C426.203 471.045 425.553 470.832 424.678 470.832C424.017 470.832 423.43 470.992 422.918 471.312C422.427 471.611 422.043 472.048 421.766 472.624C421.51 473.179 421.382 473.84 421.382 474.608C421.382 475.483 421.542 476.219 421.862 476.816C422.182 477.392 422.619 477.829 423.174 478.128C423.729 478.427 424.347 478.576 425.03 478.576C425.521 478.576 425.99 478.491 426.438 478.32C426.907 478.149 427.366 477.925 427.814 477.648L429.798 480.976C429.051 481.403 428.241 481.744 427.366 482C426.513 482.256 425.702 482.384 424.934 482.384ZM455.332 482.384C454.158 482.384 453.166 482.192 452.356 481.808C451.566 481.403 450.873 480.88 450.276 480.24L450.628 479.28V482H446.148V456.752H450.596V470.416V468.976C451.15 468.507 451.886 468.112 452.804 467.792C453.721 467.472 454.766 467.312 455.94 467.312C457.156 467.312 458.265 467.6 459.268 468.176C460.27 468.752 461.07 469.595 461.668 470.704C462.286 471.792 462.596 473.125 462.596 474.704C462.596 476.283 462.254 477.648 461.572 478.8C460.91 479.952 460.025 480.837 458.916 481.456C457.806 482.075 456.612 482.384 455.332 482.384ZM454.34 478.608C455.001 478.608 455.609 478.437 456.164 478.096C456.74 477.755 457.198 477.285 457.54 476.688C457.881 476.091 458.052 475.419 458.052 474.672C458.052 473.925 457.881 473.264 457.54 472.688C457.198 472.112 456.74 471.664 456.164 471.344C455.609 471.003 455.001 470.832 454.34 470.832C453.764 470.832 453.22 470.928 452.708 471.12C452.217 471.291 451.79 471.547 451.428 471.888C451.086 472.208 450.82 472.603 450.628 473.072V476.496C450.884 476.965 451.182 477.36 451.524 477.68C451.886 477.979 452.302 478.213 452.772 478.384C453.241 478.533 453.764 478.608 454.34 478.608ZM467.237 488.72L476.549 468.016H480.581L471.557 488.72H467.237ZM470.981 482.064L464.133 468.016H469.157L474.437 479.824L470.981 482.064ZM505.489 480.752C504.87 481.243 504.091 481.637 503.153 481.936C502.235 482.235 501.329 482.384 500.433 482.384C498.833 482.384 497.435 482.096 496.241 481.52C495.067 480.923 494.15 480.08 493.489 478.992C492.849 477.883 492.529 476.549 492.529 474.992C492.529 473.435 492.881 472.112 493.585 471.024C494.289 469.915 495.206 469.072 496.337 468.496C497.489 467.92 498.694 467.632 499.953 467.632C501.211 467.632 502.299 467.803 503.217 468.144C504.155 468.485 504.955 468.933 505.617 469.488L503.441 472.368C503.142 472.133 502.726 471.899 502.193 471.664C501.681 471.408 501.073 471.28 500.369 471.28C499.75 471.28 499.185 471.44 498.673 471.76C498.161 472.08 497.755 472.517 497.457 473.072C497.158 473.627 497.009 474.267 497.009 474.992C497.009 475.675 497.169 476.304 497.489 476.88C497.809 477.456 498.246 477.915 498.801 478.256C499.377 478.576 500.049 478.736 500.817 478.736C501.307 478.736 501.755 478.672 502.161 478.544C502.587 478.395 502.95 478.192 503.249 477.936L505.489 480.752ZM508.929 482V456.752H513.313V470.832L513.281 470.288C513.772 469.413 514.465 468.709 515.361 468.176C516.257 467.621 517.356 467.344 518.657 467.344C519.98 467.344 521.078 467.739 521.953 468.528C522.849 469.296 523.308 470.299 523.329 471.536V482H518.849V473.2C518.828 472.581 518.657 472.091 518.337 471.728C518.038 471.344 517.526 471.152 516.801 471.152C516.118 471.152 515.521 471.376 515.009 471.824C514.497 472.272 514.102 472.88 513.825 473.648C513.548 474.416 513.409 475.301 513.409 476.304V482H508.929ZM526.841 474.832C526.841 473.403 527.172 472.123 527.833 470.992C528.516 469.861 529.465 468.976 530.681 468.336C531.897 467.675 533.294 467.344 534.873 467.344C536.473 467.344 537.86 467.675 539.033 468.336C540.206 468.976 541.102 469.861 541.721 470.992C542.361 472.123 542.681 473.403 542.681 474.832C542.681 476.261 542.361 477.552 541.721 478.704C541.102 479.835 540.206 480.731 539.033 481.392C537.86 482.053 536.452 482.384 534.809 482.384C533.273 482.384 531.897 482.085 530.681 481.488C529.486 480.891 528.548 480.027 527.865 478.896C527.182 477.765 526.841 476.411 526.841 474.832ZM531.353 474.864C531.353 475.589 531.502 476.251 531.801 476.848C532.1 477.424 532.505 477.883 533.017 478.224C533.529 478.565 534.105 478.736 534.745 478.736C535.449 478.736 536.057 478.565 536.569 478.224C537.081 477.883 537.476 477.424 537.753 476.848C538.03 476.251 538.169 475.589 538.169 474.864C538.169 474.117 538.03 473.456 537.753 472.88C537.476 472.304 537.081 471.845 536.569 471.504C536.057 471.163 535.449 470.992 534.745 470.992C534.105 470.992 533.529 471.163 533.017 471.504C532.505 471.845 532.1 472.304 531.801 472.88C531.502 473.456 531.353 474.117 531.353 474.864ZM545.122 474.832C545.122 473.403 545.453 472.123 546.114 470.992C546.797 469.861 547.746 468.976 548.962 468.336C550.178 467.675 551.576 467.344 553.154 467.344C554.754 467.344 556.141 467.675 557.314 468.336C558.488 468.976 559.384 469.861 560.002 470.992C560.642 472.123 560.962 473.403 560.962 474.832C560.962 476.261 560.642 477.552 560.002 478.704C559.384 479.835 558.488 480.731 557.314 481.392C556.141 482.053 554.733 482.384 553.09 482.384C551.554 482.384 550.178 482.085 548.962 481.488C547.768 480.891 546.829 480.027 546.146 478.896C545.464 477.765 545.122 476.411 545.122 474.832ZM549.634 474.864C549.634 475.589 549.784 476.251 550.082 476.848C550.381 477.424 550.786 477.883 551.298 478.224C551.81 478.565 552.386 478.736 553.026 478.736C553.73 478.736 554.338 478.565 554.85 478.224C555.362 477.883 555.757 477.424 556.034 476.848C556.312 476.251 556.45 475.589 556.45 474.864C556.45 474.117 556.312 473.456 556.034 472.88C555.757 472.304 555.362 471.845 554.85 471.504C554.338 471.163 553.73 470.992 553.026 470.992C552.386 470.992 551.81 471.163 551.298 471.504C550.786 471.845 550.381 472.304 550.082 472.88C549.784 473.456 549.634 474.117 549.634 474.864ZM569.036 482.288C567.884 482.288 566.806 482.085 565.804 481.68C564.822 481.275 563.99 480.709 563.308 479.984L565.164 477.52C565.846 478.139 566.476 478.587 567.052 478.864C567.649 479.12 568.182 479.248 568.652 479.248C569.014 479.248 569.334 479.216 569.612 479.152C569.91 479.067 570.145 478.949 570.316 478.8C570.486 478.629 570.572 478.416 570.572 478.16C570.572 477.797 570.422 477.509 570.124 477.296C569.846 477.083 569.484 476.912 569.036 476.784C568.588 476.635 568.108 476.485 567.596 476.336C566.316 475.931 565.388 475.344 564.812 474.576C564.257 473.787 563.98 472.933 563.98 472.016C563.98 471.312 564.161 470.608 564.524 469.904C564.908 469.179 565.505 468.581 566.316 468.112C567.148 467.621 568.214 467.376 569.516 467.376C570.689 467.376 571.681 467.493 572.492 467.728C573.302 467.963 574.07 468.347 574.796 468.88L573.1 471.504C572.694 471.184 572.236 470.917 571.724 470.704C571.233 470.469 570.774 470.341 570.348 470.32C569.964 470.299 569.633 470.341 569.356 470.448C569.1 470.555 568.897 470.693 568.748 470.864C568.598 471.035 568.524 471.216 568.524 471.408C568.502 471.813 568.652 472.133 568.972 472.368C569.313 472.603 569.74 472.784 570.252 472.912C570.764 473.04 571.265 473.189 571.756 473.36C572.438 473.573 573.025 473.861 573.516 474.224C574.006 474.587 574.38 475.024 574.636 475.536C574.913 476.027 575.052 476.624 575.052 477.328C575.052 478.181 574.828 478.992 574.38 479.76C573.953 480.507 573.292 481.115 572.396 481.584C571.521 482.053 570.401 482.288 569.036 482.288ZM578.804 468.016H583.284V482H578.804V468.016ZM578.708 463.056C578.708 462.395 578.964 461.851 579.476 461.424C580.009 460.997 580.575 460.784 581.172 460.784C581.769 460.784 582.313 460.997 582.804 461.424C583.316 461.851 583.572 462.395 583.572 463.056C583.572 463.717 583.316 464.261 582.804 464.688C582.313 465.093 581.769 465.296 581.172 465.296C580.575 465.296 580.009 465.093 579.476 464.688C578.964 464.261 578.708 463.717 578.708 463.056ZM591.962 468.016L592.314 470.512L592.25 470.288C592.74 469.413 593.434 468.709 594.33 468.176C595.226 467.621 596.324 467.344 597.626 467.344C598.948 467.344 600.047 467.739 600.922 468.528C601.818 469.296 602.276 470.299 602.298 471.536V482H597.818V473.2C597.796 472.581 597.626 472.091 597.306 471.728C597.007 471.344 596.495 471.152 595.77 471.152C595.087 471.152 594.49 471.376 593.978 471.824C593.466 472.272 593.071 472.88 592.794 473.648C592.516 474.416 592.378 475.301 592.378 476.304V482H587.898V468.016H591.962ZM614.13 489.04C612.871 489.04 611.804 488.891 610.93 488.592C610.076 488.293 609.351 487.931 608.754 487.504C608.156 487.077 607.623 486.672 607.154 486.288L609.778 483.216C610.268 483.664 610.834 484.091 611.474 484.496C612.135 484.923 612.999 485.136 614.066 485.136C614.77 485.136 615.42 485.008 616.018 484.752C616.636 484.517 617.127 484.165 617.49 483.696C617.874 483.227 618.066 482.64 618.066 481.936V478.864L618.226 479.664C617.884 480.389 617.266 481.029 616.37 481.584C615.474 482.117 614.3 482.384 612.85 482.384C611.591 482.384 610.418 482.064 609.33 481.424C608.263 480.763 607.41 479.877 606.77 478.768C606.13 477.637 605.81 476.357 605.81 474.928C605.81 473.456 606.151 472.155 606.834 471.024C607.516 469.872 608.402 468.965 609.49 468.304C610.578 467.643 611.73 467.312 612.946 467.312C614.162 467.312 615.207 467.493 616.082 467.856C616.978 468.197 617.65 468.624 618.098 469.136L617.938 469.552L618.418 468.016H622.546V482C622.546 483.365 622.162 484.571 621.394 485.616C620.626 486.683 619.602 487.515 618.322 488.112C617.063 488.731 615.666 489.04 614.13 489.04ZM610.322 474.8C610.322 475.547 610.492 476.219 610.834 476.816C611.175 477.413 611.634 477.883 612.21 478.224C612.807 478.565 613.468 478.736 614.194 478.736C614.812 478.736 615.356 478.661 615.826 478.512C616.316 478.341 616.743 478.107 617.106 477.808C617.49 477.488 617.81 477.093 618.066 476.624V473.2C617.874 472.731 617.586 472.336 617.202 472.016C616.818 471.675 616.37 471.419 615.858 471.248C615.367 471.056 614.812 470.96 614.194 470.96C613.468 470.96 612.807 471.131 612.21 471.472C611.634 471.792 611.175 472.24 610.834 472.816C610.492 473.392 610.322 474.053 610.322 474.8ZM133.848 520.288C132.696 520.288 131.619 520.085 130.616 519.68C129.635 519.275 128.803 518.709 128.12 517.984L129.976 515.52C130.659 516.139 131.288 516.587 131.864 516.864C132.461 517.12 132.995 517.248 133.464 517.248C133.827 517.248 134.147 517.216 134.424 517.152C134.723 517.067 134.957 516.949 135.128 516.8C135.299 516.629 135.384 516.416 135.384 516.16C135.384 515.797 135.235 515.509 134.936 515.296C134.659 515.083 134.296 514.912 133.848 514.784C133.4 514.635 132.92 514.485 132.408 514.336C131.128 513.931 130.2 513.344 129.624 512.576C129.069 511.787 128.792 510.933 128.792 510.016C128.792 509.312 128.973 508.608 129.336 507.904C129.72 507.179 130.317 506.581 131.128 506.112C131.96 505.621 133.027 505.376 134.328 505.376C135.501 505.376 136.493 505.493 137.304 505.728C138.115 505.963 138.883 506.347 139.608 506.88L137.912 509.504C137.507 509.184 137.048 508.917 136.536 508.704C136.045 508.469 135.587 508.341 135.16 508.32C134.776 508.299 134.445 508.341 134.168 508.448C133.912 508.555 133.709 508.693 133.56 508.864C133.411 509.035 133.336 509.216 133.336 509.408C133.315 509.813 133.464 510.133 133.784 510.368C134.125 510.603 134.552 510.784 135.064 510.912C135.576 511.04 136.077 511.189 136.568 511.36C137.251 511.573 137.837 511.861 138.328 512.224C138.819 512.587 139.192 513.024 139.448 513.536C139.725 514.027 139.864 514.624 139.864 515.328C139.864 516.181 139.64 516.992 139.192 517.76C138.765 518.507 138.104 519.115 137.208 519.584C136.333 520.053 135.213 520.288 133.848 520.288ZM148.129 520.672C146.87 520.672 145.814 520.288 144.961 519.52C144.107 518.731 143.659 517.717 143.617 516.48V506.016H148.097V514.816C148.139 515.435 148.299 515.936 148.577 516.32C148.854 516.683 149.323 516.864 149.985 516.864C150.646 516.864 151.211 516.64 151.681 516.192C152.171 515.744 152.545 515.136 152.801 514.368C153.078 513.579 153.217 512.693 153.217 511.712V506.016H157.697V520H153.633L153.281 517.44L153.345 517.728C153.025 518.304 152.619 518.816 152.129 519.264C151.638 519.712 151.051 520.053 150.369 520.288C149.707 520.544 148.961 520.672 148.129 520.672ZM166.848 520.288C165.696 520.288 164.619 520.085 163.616 519.68C162.635 519.275 161.803 518.709 161.12 517.984L162.976 515.52C163.659 516.139 164.288 516.587 164.864 516.864C165.461 517.12 165.995 517.248 166.464 517.248C166.827 517.248 167.147 517.216 167.424 517.152C167.723 517.067 167.957 516.949 168.128 516.8C168.299 516.629 168.384 516.416 168.384 516.16C168.384 515.797 168.235 515.509 167.936 515.296C167.659 515.083 167.296 514.912 166.848 514.784C166.4 514.635 165.92 514.485 165.408 514.336C164.128 513.931 163.2 513.344 162.624 512.576C162.069 511.787 161.792 510.933 161.792 510.016C161.792 509.312 161.973 508.608 162.336 507.904C162.72 507.179 163.317 506.581 164.128 506.112C164.96 505.621 166.027 505.376 167.328 505.376C168.501 505.376 169.493 505.493 170.304 505.728C171.115 505.963 171.883 506.347 172.608 506.88L170.912 509.504C170.507 509.184 170.048 508.917 169.536 508.704C169.045 508.469 168.587 508.341 168.16 508.32C167.776 508.299 167.445 508.341 167.168 508.448C166.912 508.555 166.709 508.693 166.56 508.864C166.411 509.035 166.336 509.216 166.336 509.408C166.315 509.813 166.464 510.133 166.784 510.368C167.125 510.603 167.552 510.784 168.064 510.912C168.576 511.04 169.077 511.189 169.568 511.36C170.251 511.573 170.837 511.861 171.328 512.224C171.819 512.587 172.192 513.024 172.448 513.536C172.725 514.027 172.864 514.624 172.864 515.328C172.864 516.181 172.64 516.992 172.192 517.76C171.765 518.507 171.104 519.115 170.208 519.584C169.333 520.053 168.213 520.288 166.848 520.288ZM177.929 499.872H182.409V505.952H185.801V509.44H182.409V520H177.929V509.44H175.753V505.952H177.929V499.872ZM195.098 520.384C193.797 520.384 192.613 520.128 191.546 519.616C190.501 519.083 189.669 518.272 189.05 517.184C188.432 516.096 188.122 514.709 188.122 513.024C188.122 511.445 188.442 510.08 189.082 508.928C189.722 507.776 190.565 506.891 191.61 506.272C192.656 505.632 193.765 505.312 194.938 505.312C196.325 505.312 197.37 505.547 198.074 506.016C198.8 506.464 199.397 506.965 199.866 507.52L199.674 508.064L200.09 506.016H204.25V520H199.77V516.96L200.122 517.92C200.08 517.92 199.952 518.048 199.738 518.304C199.525 518.539 199.205 518.827 198.778 519.168C198.373 519.488 197.861 519.765 197.242 520C196.645 520.256 195.93 520.384 195.098 520.384ZM196.378 516.736C196.912 516.736 197.392 516.661 197.818 516.512C198.245 516.341 198.618 516.107 198.938 515.808C199.258 515.488 199.536 515.093 199.77 514.624V511.2C199.6 510.731 199.344 510.336 199.002 510.016C198.661 509.675 198.256 509.419 197.786 509.248C197.317 509.056 196.794 508.96 196.218 508.96C195.578 508.96 194.981 509.131 194.426 509.472C193.893 509.792 193.466 510.24 193.146 510.816C192.826 511.392 192.666 512.053 192.666 512.8C192.666 513.547 192.837 514.219 193.178 514.816C193.52 515.413 193.968 515.883 194.522 516.224C195.098 516.565 195.717 516.736 196.378 516.736ZM208.867 506.016H213.347V520H208.867V506.016ZM208.771 501.056C208.771 500.395 209.027 499.851 209.539 499.424C210.072 498.997 210.637 498.784 211.235 498.784C211.832 498.784 212.376 498.997 212.867 499.424C213.379 499.851 213.635 500.395 213.635 501.056C213.635 501.717 213.379 502.261 212.867 502.688C212.376 503.093 211.832 503.296 211.235 503.296C210.637 503.296 210.072 503.093 209.539 502.688C209.027 502.261 208.771 501.717 208.771 501.056ZM222.024 506.016L222.376 508.512L222.312 508.288C222.803 507.413 223.496 506.709 224.392 506.176C225.288 505.621 226.387 505.344 227.688 505.344C229.011 505.344 230.11 505.739 230.984 506.528C231.88 507.296 232.339 508.299 232.36 509.536V520H227.88V511.2C227.859 510.581 227.688 510.091 227.368 509.728C227.07 509.344 226.558 509.152 225.832 509.152C225.15 509.152 224.552 509.376 224.04 509.824C223.528 510.272 223.134 510.88 222.856 511.648C222.579 512.416 222.44 513.301 222.44 514.304V520H217.96V506.016H222.024ZM242.848 520.384C241.547 520.384 240.363 520.128 239.296 519.616C238.251 519.083 237.419 518.272 236.8 517.184C236.182 516.096 235.872 514.709 235.872 513.024C235.872 511.445 236.192 510.08 236.832 508.928C237.472 507.776 238.315 506.891 239.36 506.272C240.406 505.632 241.515 505.312 242.688 505.312C244.075 505.312 245.12 505.547 245.824 506.016C246.55 506.464 247.147 506.965 247.616 507.52L247.424 508.064L247.84 506.016H252V520H247.52V516.96L247.872 517.92C247.83 517.92 247.702 518.048 247.488 518.304C247.275 518.539 246.955 518.827 246.528 519.168C246.123 519.488 245.611 519.765 244.992 520C244.395 520.256 243.68 520.384 242.848 520.384ZM244.128 516.736C244.662 516.736 245.142 516.661 245.568 516.512C245.995 516.341 246.368 516.107 246.688 515.808C247.008 515.488 247.286 515.093 247.52 514.624V511.2C247.35 510.731 247.094 510.336 246.752 510.016C246.411 509.675 246.006 509.419 245.536 509.248C245.067 509.056 244.544 508.96 243.968 508.96C243.328 508.96 242.731 509.131 242.176 509.472C241.643 509.792 241.216 510.24 240.896 510.816C240.576 511.392 240.416 512.053 240.416 512.8C240.416 513.547 240.587 514.219 240.928 514.816C241.27 515.413 241.718 515.883 242.272 516.224C242.848 516.565 243.467 516.736 244.128 516.736ZM265.801 520.384C264.627 520.384 263.635 520.192 262.825 519.808C262.035 519.403 261.342 518.88 260.745 518.24L261.097 517.28V520H256.617V494.752H261.065V508.416V506.976C261.619 506.507 262.355 506.112 263.273 505.792C264.19 505.472 265.235 505.312 266.409 505.312C267.625 505.312 268.734 505.6 269.737 506.176C270.739 506.752 271.539 507.595 272.137 508.704C272.755 509.792 273.065 511.125 273.065 512.704C273.065 514.283 272.723 515.648 272.041 516.8C271.379 517.952 270.494 518.837 269.385 519.456C268.275 520.075 267.081 520.384 265.801 520.384ZM264.809 516.608C265.47 516.608 266.078 516.437 266.633 516.096C267.209 515.755 267.667 515.285 268.009 514.688C268.35 514.091 268.521 513.419 268.521 512.672C268.521 511.925 268.35 511.264 268.009 510.688C267.667 510.112 267.209 509.664 266.633 509.344C266.078 509.003 265.47 508.832 264.809 508.832C264.233 508.832 263.689 508.928 263.177 509.12C262.686 509.291 262.259 509.547 261.897 509.888C261.555 510.208 261.289 510.603 261.097 511.072V514.496C261.353 514.965 261.651 515.36 261.993 515.68C262.355 515.979 262.771 516.213 263.241 516.384C263.71 516.533 264.233 516.608 264.809 516.608ZM276.585 494.752H281.065V520H276.585V494.752ZM292.559 520.384C290.852 520.384 289.402 520.064 288.207 519.424C287.034 518.784 286.138 517.899 285.519 516.768C284.9 515.637 284.591 514.336 284.591 512.864C284.591 511.456 284.954 510.187 285.679 509.056C286.404 507.925 287.375 507.029 288.591 506.368C289.807 505.685 291.162 505.344 292.655 505.344C294.66 505.344 296.303 505.931 297.583 507.104C298.884 508.256 299.727 509.931 300.111 512.128L289.231 515.584L288.239 513.152L296.111 510.496L295.183 510.912C295.012 510.357 294.703 509.877 294.255 509.472C293.828 509.045 293.178 508.832 292.303 508.832C291.642 508.832 291.055 508.992 290.543 509.312C290.052 509.611 289.668 510.048 289.391 510.624C289.135 511.179 289.007 511.84 289.007 512.608C289.007 513.483 289.167 514.219 289.487 514.816C289.807 515.392 290.244 515.829 290.799 516.128C291.354 516.427 291.972 516.576 292.655 516.576C293.146 516.576 293.615 516.491 294.063 516.32C294.532 516.149 294.991 515.925 295.439 515.648L297.423 518.976C296.676 519.403 295.866 519.744 294.991 520C294.138 520.256 293.327 520.384 292.559 520.384ZM315.085 499.872H319.565V505.952H322.957V509.44H319.565V520H315.085V509.44H312.909V505.952H315.085V499.872ZM330.399 506.016L330.815 509.856L330.719 509.28C331.124 508.448 331.679 507.744 332.383 507.168C333.087 506.571 333.78 506.112 334.463 505.792C335.167 505.472 335.7 505.312 336.063 505.312L335.839 509.792C334.793 509.664 333.897 509.835 333.151 510.304C332.404 510.773 331.828 511.392 331.423 512.16C331.017 512.928 330.815 513.717 330.815 514.528V520H326.367V506.016H330.399ZM344.911 520.384C343.609 520.384 342.425 520.128 341.359 519.616C340.313 519.083 339.481 518.272 338.863 517.184C338.244 516.096 337.935 514.709 337.935 513.024C337.935 511.445 338.255 510.08 338.895 508.928C339.535 507.776 340.377 506.891 341.423 506.272C342.468 505.632 343.577 505.312 344.751 505.312C346.137 505.312 347.183 505.547 347.887 506.016C348.612 506.464 349.209 506.965 349.679 507.52L349.487 508.064L349.903 506.016H354.063V520H349.583V516.96L349.935 517.92C349.892 517.92 349.764 518.048 349.551 518.304C349.337 518.539 349.017 518.827 348.591 519.168C348.185 519.488 347.673 519.765 347.055 520C346.457 520.256 345.743 520.384 344.911 520.384ZM346.191 516.736C346.724 516.736 347.204 516.661 347.631 516.512C348.057 516.341 348.431 516.107 348.751 515.808C349.071 515.488 349.348 515.093 349.583 514.624V511.2C349.412 510.731 349.156 510.336 348.815 510.016C348.473 509.675 348.068 509.419 347.599 509.248C347.129 509.056 346.607 508.96 346.031 508.96C345.391 508.96 344.793 509.131 344.239 509.472C343.705 509.792 343.279 510.24 342.959 510.816C342.639 511.392 342.479 512.053 342.479 512.8C342.479 513.547 342.649 514.219 342.991 514.816C343.332 515.413 343.78 515.883 344.335 516.224C344.911 516.565 345.529 516.736 346.191 516.736ZM362.743 506.016L363.095 508.512L363.031 508.288C363.522 507.413 364.215 506.709 365.111 506.176C366.007 505.621 367.106 505.344 368.407 505.344C369.73 505.344 370.828 505.739 371.703 506.528C372.599 507.296 373.058 508.299 373.079 509.536V520H368.599V511.2C368.578 510.581 368.407 510.091 368.087 509.728C367.788 509.344 367.276 509.152 366.551 509.152C365.868 509.152 365.271 509.376 364.759 509.824C364.247 510.272 363.852 510.88 363.575 511.648C363.298 512.416 363.159 513.301 363.159 514.304V520H358.679V506.016H362.743ZM382.223 520.288C381.071 520.288 379.994 520.085 378.991 519.68C378.01 519.275 377.178 518.709 376.495 517.984L378.351 515.52C379.034 516.139 379.663 516.587 380.239 516.864C380.836 517.12 381.37 517.248 381.839 517.248C382.202 517.248 382.522 517.216 382.799 517.152C383.098 517.067 383.332 516.949 383.503 516.8C383.674 516.629 383.759 516.416 383.759 516.16C383.759 515.797 383.61 515.509 383.311 515.296C383.034 515.083 382.671 514.912 382.223 514.784C381.775 514.635 381.295 514.485 380.783 514.336C379.503 513.931 378.575 513.344 377.999 512.576C377.444 511.787 377.167 510.933 377.167 510.016C377.167 509.312 377.348 508.608 377.711 507.904C378.095 507.179 378.692 506.581 379.503 506.112C380.335 505.621 381.402 505.376 382.703 505.376C383.876 505.376 384.868 505.493 385.679 505.728C386.49 505.963 387.258 506.347 387.983 506.88L386.287 509.504C385.882 509.184 385.423 508.917 384.911 508.704C384.42 508.469 383.962 508.341 383.535 508.32C383.151 508.299 382.82 508.341 382.543 508.448C382.287 508.555 382.084 508.693 381.935 508.864C381.786 509.035 381.711 509.216 381.711 509.408C381.69 509.813 381.839 510.133 382.159 510.368C382.5 510.603 382.927 510.784 383.439 510.912C383.951 511.04 384.452 511.189 384.943 511.36C385.626 511.573 386.212 511.861 386.703 512.224C387.194 512.587 387.567 513.024 387.823 513.536C388.1 514.027 388.239 514.624 388.239 515.328C388.239 516.181 388.015 516.992 387.567 517.76C387.14 518.507 386.479 519.115 385.583 519.584C384.708 520.053 383.588 520.288 382.223 520.288ZM400.76 520.384C399.928 520.384 399.106 520.235 398.296 519.936C397.506 519.616 396.845 519.168 396.312 518.592L396.44 517.28V526.72H391.992V505.696H395.832L396.472 508.416L396.12 507.456C396.845 506.837 397.656 506.325 398.552 505.92C399.448 505.515 400.482 505.312 401.656 505.312C402.957 505.312 404.12 505.621 405.144 506.24C406.168 506.837 406.968 507.712 407.544 508.864C408.141 509.995 408.44 511.36 408.44 512.96C408.44 514.539 408.109 515.883 407.448 516.992C406.786 518.101 405.88 518.944 404.728 519.52C403.576 520.096 402.253 520.384 400.76 520.384ZM399.864 516.864C400.589 516.864 401.25 516.704 401.848 516.384C402.466 516.064 402.957 515.616 403.32 515.04C403.704 514.443 403.896 513.771 403.896 513.024C403.896 512.235 403.725 511.552 403.384 510.976C403.064 510.379 402.616 509.92 402.04 509.6C401.485 509.259 400.866 509.088 400.184 509.088C399.586 509.088 399.053 509.173 398.584 509.344C398.136 509.493 397.73 509.728 397.368 510.048C397.026 510.347 396.728 510.731 396.472 511.2V514.624C396.642 515.072 396.888 515.467 397.208 515.808C397.528 516.149 397.912 516.416 398.36 516.608C398.829 516.779 399.33 516.864 399.864 516.864ZM410.872 512.832C410.872 511.403 411.203 510.123 411.864 508.992C412.547 507.861 413.496 506.976 414.712 506.336C415.928 505.675 417.326 505.344 418.904 505.344C420.504 505.344 421.891 505.675 423.064 506.336C424.238 506.976 425.134 507.861 425.752 508.992C426.392 510.123 426.712 511.403 426.712 512.832C426.712 514.261 426.392 515.552 425.752 516.704C425.134 517.835 424.238 518.731 423.064 519.392C421.891 520.053 420.483 520.384 418.84 520.384C417.304 520.384 415.928 520.085 414.712 519.488C413.518 518.891 412.579 518.027 411.896 516.896C411.214 515.765 410.872 514.411 410.872 512.832ZM415.384 512.864C415.384 513.589 415.534 514.251 415.832 514.848C416.131 515.424 416.536 515.883 417.048 516.224C417.56 516.565 418.136 516.736 418.776 516.736C419.48 516.736 420.088 516.565 420.6 516.224C421.112 515.883 421.507 515.424 421.784 514.848C422.062 514.251 422.2 513.589 422.2 512.864C422.2 512.117 422.062 511.456 421.784 510.88C421.507 510.304 421.112 509.845 420.6 509.504C420.088 509.163 419.48 508.992 418.776 508.992C418.136 508.992 417.56 509.163 417.048 509.504C416.536 509.845 416.131 510.304 415.832 510.88C415.534 511.456 415.384 512.117 415.384 512.864ZM434.274 506.016L434.69 509.856L434.594 509.28C434.999 508.448 435.554 507.744 436.258 507.168C436.962 506.571 437.655 506.112 438.338 505.792C439.042 505.472 439.575 505.312 439.938 505.312L439.714 509.792C438.668 509.664 437.772 509.835 437.026 510.304C436.279 510.773 435.703 511.392 435.298 512.16C434.892 512.928 434.69 513.717 434.69 514.528V520H430.242V506.016H434.274ZM444.679 499.872H449.159V505.952H452.551V509.44H449.159V520H444.679V509.44H442.503V505.952H444.679V499.872ZM461.848 520.384C460.547 520.384 459.363 520.128 458.296 519.616C457.251 519.083 456.419 518.272 455.8 517.184C455.182 516.096 454.872 514.709 454.872 513.024C454.872 511.445 455.192 510.08 455.832 508.928C456.472 507.776 457.315 506.891 458.36 506.272C459.406 505.632 460.515 505.312 461.688 505.312C463.075 505.312 464.12 505.547 464.824 506.016C465.55 506.464 466.147 506.965 466.616 507.52L466.424 508.064L466.84 506.016H471V520H466.52V516.96L466.872 517.92C466.83 517.92 466.702 518.048 466.488 518.304C466.275 518.539 465.955 518.827 465.528 519.168C465.123 519.488 464.611 519.765 463.992 520C463.395 520.256 462.68 520.384 461.848 520.384ZM463.128 516.736C463.662 516.736 464.142 516.661 464.568 516.512C464.995 516.341 465.368 516.107 465.688 515.808C466.008 515.488 466.286 515.093 466.52 514.624V511.2C466.35 510.731 466.094 510.336 465.752 510.016C465.411 509.675 465.006 509.419 464.536 509.248C464.067 509.056 463.544 508.96 462.968 508.96C462.328 508.96 461.731 509.131 461.176 509.472C460.643 509.792 460.216 510.24 459.896 510.816C459.576 511.392 459.416 512.053 459.416 512.8C459.416 513.547 459.587 514.219 459.928 514.816C460.27 515.413 460.718 515.883 461.272 516.224C461.848 516.565 462.467 516.736 463.128 516.736ZM476.929 499.872H481.409V505.952H484.801V509.44H481.409V520H476.929V509.44H474.753V505.952H476.929V499.872ZM488.21 506.016H492.69V520H488.21V506.016ZM488.114 501.056C488.114 500.395 488.37 499.851 488.882 499.424C489.416 498.997 489.981 498.784 490.578 498.784C491.176 498.784 491.72 498.997 492.21 499.424C492.722 499.851 492.978 500.395 492.978 501.056C492.978 501.717 492.722 502.261 492.21 502.688C491.72 503.093 491.176 503.296 490.578 503.296C489.981 503.296 489.416 503.093 488.882 502.688C488.37 502.261 488.114 501.717 488.114 501.056ZM496.216 512.832C496.216 511.403 496.547 510.123 497.208 508.992C497.891 507.861 498.84 506.976 500.056 506.336C501.272 505.675 502.669 505.344 504.248 505.344C505.848 505.344 507.235 505.675 508.408 506.336C509.581 506.976 510.477 507.861 511.096 508.992C511.736 510.123 512.056 511.403 512.056 512.832C512.056 514.261 511.736 515.552 511.096 516.704C510.477 517.835 509.581 518.731 508.408 519.392C507.235 520.053 505.827 520.384 504.184 520.384C502.648 520.384 501.272 520.085 500.056 519.488C498.861 518.891 497.923 518.027 497.24 516.896C496.557 515.765 496.216 514.411 496.216 512.832ZM500.728 512.864C500.728 513.589 500.877 514.251 501.176 514.848C501.475 515.424 501.88 515.883 502.392 516.224C502.904 516.565 503.48 516.736 504.12 516.736C504.824 516.736 505.432 516.565 505.944 516.224C506.456 515.883 506.851 515.424 507.128 514.848C507.405 514.251 507.544 513.589 507.544 512.864C507.544 512.117 507.405 511.456 507.128 510.88C506.851 510.304 506.456 509.845 505.944 509.504C505.432 509.163 504.824 508.992 504.12 508.992C503.48 508.992 502.904 509.163 502.392 509.504C501.88 509.845 501.475 510.304 501.176 510.88C500.877 511.456 500.728 512.117 500.728 512.864ZM519.649 506.016L520.001 508.512L519.937 508.288C520.428 507.413 521.121 506.709 522.017 506.176C522.913 505.621 524.012 505.344 525.313 505.344C526.636 505.344 527.735 505.739 528.609 506.528C529.505 507.296 529.964 508.299 529.985 509.536V520H525.505V511.2C525.484 510.581 525.313 510.091 524.993 509.728C524.695 509.344 524.183 509.152 523.457 509.152C522.775 509.152 522.177 509.376 521.665 509.824C521.153 510.272 520.759 510.88 520.481 511.648C520.204 512.416 520.065 513.301 520.065 514.304V520H515.585V506.016H519.649ZM532.761 517.696C532.761 517.035 532.996 516.48 533.465 516.032C533.956 515.584 534.489 515.36 535.065 515.36C535.599 515.36 536.1 515.584 536.569 516.032C537.06 516.48 537.305 517.035 537.305 517.696C537.305 518.4 537.06 518.965 536.569 519.392C536.1 519.797 535.599 520 535.065 520C534.489 520 533.956 519.797 533.465 519.392C532.996 518.965 532.761 518.4 532.761 517.696ZM130.04 534.448H134.68V553.52H145.752V558H130.04V534.448ZM148.716 550.832C148.716 549.403 149.047 548.123 149.708 546.992C150.391 545.861 151.34 544.976 152.556 544.336C153.772 543.675 155.169 543.344 156.748 543.344C158.348 543.344 159.735 543.675 160.908 544.336C162.081 544.976 162.977 545.861 163.596 546.992C164.236 548.123 164.556 549.403 164.556 550.832C164.556 552.261 164.236 553.552 163.596 554.704C162.977 555.835 162.081 556.731 160.908 557.392C159.735 558.053 158.327 558.384 156.684 558.384C155.148 558.384 153.772 558.085 152.556 557.488C151.361 556.891 150.423 556.027 149.74 554.896C149.057 553.765 148.716 552.411 148.716 550.832ZM153.228 550.864C153.228 551.589 153.377 552.251 153.676 552.848C153.975 553.424 154.38 553.883 154.892 554.224C155.404 554.565 155.98 554.736 156.62 554.736C157.324 554.736 157.932 554.565 158.444 554.224C158.956 553.883 159.351 553.424 159.628 552.848C159.905 552.251 160.044 551.589 160.044 550.864C160.044 550.117 159.905 549.456 159.628 548.88C159.351 548.304 158.956 547.845 158.444 547.504C157.932 547.163 157.324 546.992 156.62 546.992C155.98 546.992 155.404 547.163 154.892 547.504C154.38 547.845 153.975 548.304 153.676 548.88C153.377 549.456 153.228 550.117 153.228 550.864ZM175.317 565.04C174.059 565.04 172.992 564.891 172.117 564.592C171.264 564.293 170.539 563.931 169.941 563.504C169.344 563.077 168.811 562.672 168.341 562.288L170.965 559.216C171.456 559.664 172.021 560.091 172.661 560.496C173.323 560.923 174.187 561.136 175.253 561.136C175.957 561.136 176.608 561.008 177.205 560.752C177.824 560.517 178.315 560.165 178.677 559.696C179.061 559.227 179.253 558.64 179.253 557.936V554.864L179.413 555.664C179.072 556.389 178.453 557.029 177.557 557.584C176.661 558.117 175.488 558.384 174.037 558.384C172.779 558.384 171.605 558.064 170.517 557.424C169.451 556.763 168.597 555.877 167.957 554.768C167.317 553.637 166.997 552.357 166.997 550.928C166.997 549.456 167.339 548.155 168.021 547.024C168.704 545.872 169.589 544.965 170.677 544.304C171.765 543.643 172.917 543.312 174.133 543.312C175.349 543.312 176.395 543.493 177.269 543.856C178.165 544.197 178.837 544.624 179.285 545.136L179.125 545.552L179.605 544.016H183.733V558C183.733 559.365 183.349 560.571 182.581 561.616C181.813 562.683 180.789 563.515 179.509 564.112C178.251 564.731 176.853 565.04 175.317 565.04ZM171.509 550.8C171.509 551.547 171.68 552.219 172.021 552.816C172.363 553.413 172.821 553.883 173.397 554.224C173.995 554.565 174.656 554.736 175.381 554.736C176 554.736 176.544 554.661 177.013 554.512C177.504 554.341 177.931 554.107 178.293 553.808C178.677 553.488 178.997 553.093 179.253 552.624V549.2C179.061 548.731 178.773 548.336 178.389 548.016C178.005 547.675 177.557 547.419 177.045 547.248C176.555 547.056 176 546.96 175.381 546.96C174.656 546.96 173.995 547.131 173.397 547.472C172.821 547.792 172.363 548.24 172.021 548.816C171.68 549.392 171.509 550.053 171.509 550.8ZM188.335 544.016H192.815V558H188.335V544.016ZM188.239 539.056C188.239 538.395 188.495 537.851 189.007 537.424C189.541 536.997 190.106 536.784 190.703 536.784C191.301 536.784 191.845 536.997 192.335 537.424C192.847 537.851 193.103 538.395 193.103 539.056C193.103 539.717 192.847 540.261 192.335 540.688C191.845 541.093 191.301 541.296 190.703 541.296C190.106 541.296 189.541 541.093 189.007 540.688C188.495 540.261 188.239 539.717 188.239 539.056ZM201.493 544.016L201.845 546.512L201.781 546.288C202.272 545.413 202.965 544.709 203.861 544.176C204.757 543.621 205.856 543.344 207.157 543.344C208.48 543.344 209.578 543.739 210.453 544.528C211.349 545.296 211.808 546.299 211.829 547.536V558H207.349V549.2C207.328 548.581 207.157 548.091 206.837 547.728C206.538 547.344 206.026 547.152 205.301 547.152C204.618 547.152 204.021 547.376 203.509 547.824C202.997 548.272 202.602 548.88 202.325 549.648C202.048 550.416 201.909 551.301 201.909 552.304V558H197.429V544.016H201.493ZM228.147 537.872H232.627V543.952H236.019V547.44H232.627V558H228.147V547.44H225.971V543.952H228.147V537.872ZM238.341 550.832C238.341 549.403 238.672 548.123 239.333 546.992C240.016 545.861 240.965 544.976 242.181 544.336C243.397 543.675 244.794 543.344 246.373 543.344C247.973 543.344 249.36 543.675 250.533 544.336C251.706 544.976 252.602 545.861 253.221 546.992C253.861 548.123 254.181 549.403 254.181 550.832C254.181 552.261 253.861 553.552 253.221 554.704C252.602 555.835 251.706 556.731 250.533 557.392C249.36 558.053 247.952 558.384 246.309 558.384C244.773 558.384 243.397 558.085 242.181 557.488C240.986 556.891 240.048 556.027 239.365 554.896C238.682 553.765 238.341 552.411 238.341 550.832ZM242.853 550.864C242.853 551.589 243.002 552.251 243.301 552.848C243.6 553.424 244.005 553.883 244.517 554.224C245.029 554.565 245.605 554.736 246.245 554.736C246.949 554.736 247.557 554.565 248.069 554.224C248.581 553.883 248.976 553.424 249.253 552.848C249.53 552.251 249.669 551.589 249.669 550.864C249.669 550.117 249.53 549.456 249.253 548.88C248.976 548.304 248.581 547.845 248.069 547.504C247.557 547.163 246.949 546.992 246.245 546.992C245.605 546.992 245.029 547.163 244.517 547.504C244.005 547.845 243.6 548.304 243.301 548.88C243.002 549.456 242.853 550.117 242.853 550.864ZM272.661 558.288C271.509 558.288 270.431 558.085 269.429 557.68C268.447 557.275 267.615 556.709 266.933 555.984L268.789 553.52C269.471 554.139 270.101 554.587 270.677 554.864C271.274 555.12 271.807 555.248 272.277 555.248C272.639 555.248 272.959 555.216 273.237 555.152C273.535 555.067 273.77 554.949 273.941 554.8C274.111 554.629 274.197 554.416 274.197 554.16C274.197 553.797 274.047 553.509 273.749 553.296C273.471 553.083 273.109 552.912 272.661 552.784C272.213 552.635 271.733 552.485 271.221 552.336C269.941 551.931 269.013 551.344 268.437 550.576C267.882 549.787 267.605 548.933 267.605 548.016C267.605 547.312 267.786 546.608 268.149 545.904C268.533 545.179 269.13 544.581 269.941 544.112C270.773 543.621 271.839 543.376 273.141 543.376C274.314 543.376 275.306 543.493 276.117 543.728C276.927 543.963 277.695 544.347 278.421 544.88L276.725 547.504C276.319 547.184 275.861 546.917 275.349 546.704C274.858 546.469 274.399 546.341 273.973 546.32C273.589 546.299 273.258 546.341 272.981 546.448C272.725 546.555 272.522 546.693 272.373 546.864C272.223 547.035 272.149 547.216 272.149 547.408C272.127 547.813 272.277 548.133 272.597 548.368C272.938 548.603 273.365 548.784 273.877 548.912C274.389 549.04 274.89 549.189 275.381 549.36C276.063 549.573 276.65 549.861 277.141 550.224C277.631 550.587 278.005 551.024 278.261 551.536C278.538 552.027 278.677 552.624 278.677 553.328C278.677 554.181 278.453 554.992 278.005 555.76C277.578 556.507 276.917 557.115 276.021 557.584C275.146 558.053 274.026 558.288 272.661 558.288ZM283.741 537.872H288.221V543.952H291.613V547.44H288.221V558H283.741V547.44H281.565V543.952H283.741V537.872ZM300.911 558.384C299.609 558.384 298.425 558.128 297.359 557.616C296.313 557.083 295.481 556.272 294.863 555.184C294.244 554.096 293.935 552.709 293.935 551.024C293.935 549.445 294.255 548.08 294.895 546.928C295.535 545.776 296.377 544.891 297.423 544.272C298.468 543.632 299.577 543.312 300.751 543.312C302.137 543.312 303.183 543.547 303.887 544.016C304.612 544.464 305.209 544.965 305.679 545.52L305.487 546.064L305.903 544.016H310.063V558H305.583V554.96L305.935 555.92C305.892 555.92 305.764 556.048 305.551 556.304C305.337 556.539 305.017 556.827 304.591 557.168C304.185 557.488 303.673 557.765 303.055 558C302.457 558.256 301.743 558.384 300.911 558.384ZM302.191 554.736C302.724 554.736 303.204 554.661 303.631 554.512C304.057 554.341 304.431 554.107 304.751 553.808C305.071 553.488 305.348 553.093 305.583 552.624V549.2C305.412 548.731 305.156 548.336 304.815 548.016C304.473 547.675 304.068 547.419 303.599 547.248C303.129 547.056 302.607 546.96 302.031 546.96C301.391 546.96 300.793 547.131 300.239 547.472C299.705 547.792 299.279 548.24 298.959 548.816C298.639 549.392 298.479 550.053 298.479 550.8C298.479 551.547 298.649 552.219 298.991 552.816C299.332 553.413 299.78 553.883 300.335 554.224C300.911 554.565 301.529 554.736 302.191 554.736ZM318.711 544.016L319.127 547.856L319.031 547.28C319.436 546.448 319.991 545.744 320.695 545.168C321.399 544.571 322.092 544.112 322.775 543.792C323.479 543.472 324.012 543.312 324.375 543.312L324.151 547.792C323.106 547.664 322.21 547.835 321.463 548.304C320.716 548.773 320.14 549.392 319.735 550.16C319.33 550.928 319.127 551.717 319.127 552.528V558H314.679V544.016H318.711ZM329.116 537.872H333.596V543.952H336.988V547.44H333.596V558H329.116V547.44H326.94V543.952H329.116V537.872ZM351.924 564.72L361.236 544.016H365.268L356.244 564.72H351.924ZM355.668 558.064L348.82 544.016H353.844L359.124 555.824L355.668 558.064ZM366.185 550.832C366.185 549.403 366.515 548.123 367.177 546.992C367.859 545.861 368.809 544.976 370.025 544.336C371.241 543.675 372.638 543.344 374.217 543.344C375.817 543.344 377.203 543.675 378.377 544.336C379.55 544.976 380.446 545.861 381.065 546.992C381.705 548.123 382.025 549.403 382.025 550.832C382.025 552.261 381.705 553.552 381.065 554.704C380.446 555.835 379.55 556.731 378.377 557.392C377.203 558.053 375.795 558.384 374.153 558.384C372.617 558.384 371.241 558.085 370.025 557.488C368.83 556.891 367.891 556.027 367.209 554.896C366.526 553.765 366.185 552.411 366.185 550.832ZM370.697 550.864C370.697 551.589 370.846 552.251 371.145 552.848C371.443 553.424 371.849 553.883 372.361 554.224C372.873 554.565 373.449 554.736 374.089 554.736C374.793 554.736 375.401 554.565 375.913 554.224C376.425 553.883 376.819 553.424 377.097 552.848C377.374 552.251 377.513 551.589 377.513 550.864C377.513 550.117 377.374 549.456 377.097 548.88C376.819 548.304 376.425 547.845 375.913 547.504C375.401 547.163 374.793 546.992 374.089 546.992C373.449 546.992 372.873 547.163 372.361 547.504C371.849 547.845 371.443 548.304 371.145 548.88C370.846 549.456 370.697 550.117 370.697 550.864ZM390.066 558.672C388.807 558.672 387.751 558.288 386.898 557.52C386.045 556.731 385.597 555.717 385.554 554.48V544.016H390.034V552.816C390.077 553.435 390.237 553.936 390.514 554.32C390.791 554.683 391.261 554.864 391.922 554.864C392.583 554.864 393.149 554.64 393.618 554.192C394.109 553.744 394.482 553.136 394.738 552.368C395.015 551.579 395.154 550.693 395.154 549.712V544.016H399.634V558H395.57L395.218 555.44L395.282 555.728C394.962 556.304 394.557 556.816 394.066 557.264C393.575 557.712 392.989 558.053 392.306 558.288C391.645 558.544 390.898 558.672 390.066 558.672ZM408.274 544.016L408.69 547.856L408.594 547.28C408.999 546.448 409.554 545.744 410.258 545.168C410.962 544.571 411.655 544.112 412.338 543.792C413.042 543.472 413.575 543.312 413.938 543.312L413.714 547.792C412.668 547.664 411.772 547.835 411.026 548.304C410.279 548.773 409.703 549.392 409.298 550.16C408.892 550.928 408.69 551.717 408.69 552.528V558H404.242V544.016H408.274ZM434.653 558.384C432.946 558.384 431.495 558.064 430.301 557.424C429.127 556.784 428.231 555.899 427.613 554.768C426.994 553.637 426.685 552.336 426.685 550.864C426.685 549.456 427.047 548.187 427.773 547.056C428.498 545.925 429.469 545.029 430.685 544.368C431.901 543.685 433.255 543.344 434.749 543.344C436.754 543.344 438.397 543.931 439.677 545.104C440.978 546.256 441.821 547.931 442.205 550.128L431.325 553.584L430.333 551.152L438.205 548.496L437.277 548.912C437.106 548.357 436.797 547.877 436.349 547.472C435.922 547.045 435.271 546.832 434.397 546.832C433.735 546.832 433.149 546.992 432.637 547.312C432.146 547.611 431.762 548.048 431.485 548.624C431.229 549.179 431.101 549.84 431.101 550.608C431.101 551.483 431.261 552.219 431.581 552.816C431.901 553.392 432.338 553.829 432.893 554.128C433.447 554.427 434.066 554.576 434.749 554.576C435.239 554.576 435.709 554.491 436.157 554.32C436.626 554.149 437.085 553.925 437.533 553.648L439.517 556.976C438.77 557.403 437.959 557.744 437.085 558C436.231 558.256 435.421 558.384 434.653 558.384ZM457.332 556.752C456.714 557.243 455.935 557.637 454.996 557.936C454.079 558.235 453.172 558.384 452.276 558.384C450.676 558.384 449.279 558.096 448.084 557.52C446.911 556.923 445.994 556.08 445.332 554.992C444.692 553.883 444.372 552.549 444.372 550.992C444.372 549.435 444.724 548.112 445.428 547.024C446.132 545.915 447.05 545.072 448.18 544.496C449.332 543.92 450.538 543.632 451.796 543.632C453.055 543.632 454.143 543.803 455.06 544.144C455.999 544.485 456.799 544.933 457.46 545.488L455.284 548.368C454.986 548.133 454.57 547.899 454.036 547.664C453.524 547.408 452.916 547.28 452.212 547.28C451.594 547.28 451.028 547.44 450.516 547.76C450.004 548.08 449.599 548.517 449.3 549.072C449.002 549.627 448.852 550.267 448.852 550.992C448.852 551.675 449.012 552.304 449.332 552.88C449.652 553.456 450.09 553.915 450.644 554.256C451.22 554.576 451.892 554.736 452.66 554.736C453.151 554.736 453.599 554.672 454.004 554.544C454.431 554.395 454.794 554.192 455.092 553.936L457.332 556.752ZM459.685 550.832C459.685 549.403 460.015 548.123 460.677 546.992C461.359 545.861 462.309 544.976 463.525 544.336C464.741 543.675 466.138 543.344 467.717 543.344C469.317 543.344 470.703 543.675 471.877 544.336C473.05 544.976 473.946 545.861 474.565 546.992C475.205 548.123 475.525 549.403 475.525 550.832C475.525 552.261 475.205 553.552 474.565 554.704C473.946 555.835 473.05 556.731 471.877 557.392C470.703 558.053 469.295 558.384 467.653 558.384C466.117 558.384 464.741 558.085 463.525 557.488C462.33 556.891 461.391 556.027 460.709 554.896C460.026 553.765 459.685 552.411 459.685 550.832ZM464.197 550.864C464.197 551.589 464.346 552.251 464.645 552.848C464.943 553.424 465.349 553.883 465.861 554.224C466.373 554.565 466.949 554.736 467.589 554.736C468.293 554.736 468.901 554.565 469.413 554.224C469.925 553.883 470.319 553.424 470.597 552.848C470.874 552.251 471.013 551.589 471.013 550.864C471.013 550.117 470.874 549.456 470.597 548.88C470.319 548.304 469.925 547.845 469.413 547.504C468.901 547.163 468.293 546.992 467.589 546.992C466.949 546.992 466.373 547.163 465.861 547.504C465.349 547.845 464.943 548.304 464.645 548.88C464.346 549.456 464.197 550.117 464.197 550.864ZM478.478 548.72H484.494V552.624H478.478V548.72ZM490.179 558V547.92H487.811V543.952H490.179V539.088C490.179 537.253 490.702 535.76 491.747 534.608C492.814 533.435 494.35 532.848 496.355 532.848C496.953 532.848 497.614 532.944 498.339 533.136C499.086 533.307 499.737 533.595 500.291 534L498.403 537.232C498.19 536.955 497.934 536.773 497.635 536.688C497.358 536.581 497.091 536.528 496.835 536.528C496.195 536.528 495.673 536.741 495.267 537.168C494.862 537.595 494.659 538.277 494.659 539.216V543.952H498.883V547.92H494.659V558H490.179ZM506.774 544.016L507.19 547.856L507.094 547.28C507.499 546.448 508.054 545.744 508.758 545.168C509.462 544.571 510.155 544.112 510.838 543.792C511.542 543.472 512.075 543.312 512.438 543.312L512.214 547.792C511.168 547.664 510.272 547.835 509.526 548.304C508.779 548.773 508.203 549.392 507.798 550.16C507.392 550.928 507.19 551.717 507.19 552.528V558H502.742V544.016H506.774ZM515.867 544.016H520.347V558H515.867V544.016ZM515.771 539.056C515.771 538.395 516.027 537.851 516.539 537.424C517.072 536.997 517.637 536.784 518.235 536.784C518.832 536.784 519.376 536.997 519.867 537.424C520.379 537.851 520.635 538.395 520.635 539.056C520.635 539.717 520.379 540.261 519.867 540.688C519.376 541.093 518.832 541.296 518.235 541.296C517.637 541.296 517.072 541.093 516.539 540.688C516.027 540.261 515.771 539.717 515.771 539.056ZM531.84 558.384C530.134 558.384 528.683 558.064 527.488 557.424C526.315 556.784 525.419 555.899 524.8 554.768C524.182 553.637 523.872 552.336 523.872 550.864C523.872 549.456 524.235 548.187 524.96 547.056C525.686 545.925 526.656 545.029 527.872 544.368C529.088 543.685 530.443 543.344 531.936 543.344C533.942 543.344 535.584 543.931 536.864 545.104C538.166 546.256 539.008 547.931 539.392 550.128L528.512 553.584L527.52 551.152L535.392 548.496L534.464 548.912C534.294 548.357 533.984 547.877 533.536 547.472C533.11 547.045 532.459 546.832 531.584 546.832C530.923 546.832 530.336 546.992 529.824 547.312C529.334 547.611 528.95 548.048 528.672 548.624C528.416 549.179 528.288 549.84 528.288 550.608C528.288 551.483 528.448 552.219 528.768 552.816C529.088 553.392 529.526 553.829 530.08 554.128C530.635 554.427 531.254 554.576 531.936 554.576C532.427 554.576 532.896 554.491 533.344 554.32C533.814 554.149 534.272 553.925 534.72 553.648L536.704 556.976C535.958 557.403 535.147 557.744 534.272 558C533.419 558.256 532.608 558.384 531.84 558.384ZM546.712 544.016L547.064 546.512L547 546.288C547.49 545.413 548.184 544.709 549.08 544.176C549.976 543.621 551.074 543.344 552.376 543.344C553.698 543.344 554.797 543.739 555.672 544.528C556.568 545.296 557.026 546.299 557.048 547.536V558H552.568V549.2C552.546 548.581 552.376 548.091 552.056 547.728C551.757 547.344 551.245 547.152 550.52 547.152C549.837 547.152 549.24 547.376 548.728 547.824C548.216 548.272 547.821 548.88 547.544 549.648C547.266 550.416 547.128 551.301 547.128 552.304V558H542.648V544.016H546.712ZM567.344 558.384C566.042 558.384 564.88 558.085 563.856 557.488C562.832 556.869 562.021 555.984 561.424 554.832C560.848 553.68 560.56 552.315 560.56 550.736C560.56 549.157 560.88 547.813 561.52 546.704C562.16 545.595 563.034 544.752 564.144 544.176C565.253 543.6 566.512 543.312 567.92 543.312C568.816 543.312 569.669 543.451 570.48 543.728C571.312 544.005 572.005 544.432 572.56 545.008V546.416V532.752H577.008V558H572.528V555.28L572.88 556.24C572.154 556.837 571.344 557.349 570.448 557.776C569.552 558.181 568.517 558.384 567.344 558.384ZM568.816 554.608C569.413 554.608 569.936 554.533 570.384 554.384C570.853 554.213 571.258 553.979 571.6 553.68C571.962 553.36 572.272 552.965 572.528 552.496V549.072C572.357 548.603 572.09 548.208 571.728 547.888C571.386 547.547 570.96 547.291 570.448 547.12C569.957 546.928 569.413 546.832 568.816 546.832C568.154 546.832 567.536 547.003 566.96 547.344C566.405 547.664 565.957 548.112 565.616 548.688C565.274 549.264 565.104 549.925 565.104 550.672C565.104 551.419 565.274 552.091 565.616 552.688C565.957 553.285 566.405 553.755 566.96 554.096C567.536 554.437 568.154 554.608 568.816 554.608ZM581.617 532.752H586.097V558H581.617V532.752ZM591.83 564.72L601.142 544.016H605.174L596.15 564.72H591.83ZM595.574 558.064L588.726 544.016H593.75L599.03 555.824L595.574 558.064ZM130.232 602.752L127.64 599.968C128.28 599.499 128.771 598.923 129.112 598.24C129.475 597.557 129.656 596.725 129.656 595.744V582.016H134.136V596C134.136 597.664 133.837 599.04 133.24 600.128C132.643 601.237 131.64 602.112 130.232 602.752ZM129.496 577.056C129.496 576.395 129.752 575.851 130.264 575.424C130.797 574.997 131.363 574.784 131.96 574.784C132.557 574.784 133.101 574.997 133.592 575.424C134.104 575.851 134.36 576.395 134.36 577.056C134.36 577.717 134.104 578.261 133.592 578.688C133.101 579.093 132.557 579.296 131.96 579.296C131.363 579.296 130.797 579.093 130.264 578.688C129.752 578.261 129.496 577.717 129.496 577.056ZM137.654 588.832C137.654 587.403 137.984 586.123 138.646 584.992C139.328 583.861 140.278 582.976 141.494 582.336C142.71 581.675 144.107 581.344 145.686 581.344C147.286 581.344 148.672 581.675 149.846 582.336C151.019 582.976 151.915 583.861 152.534 584.992C153.174 586.123 153.494 587.403 153.494 588.832C153.494 590.261 153.174 591.552 152.534 592.704C151.915 593.835 151.019 594.731 149.846 595.392C148.672 596.053 147.264 596.384 145.622 596.384C144.086 596.384 142.71 596.085 141.494 595.488C140.299 594.891 139.36 594.027 138.678 592.896C137.995 591.765 137.654 590.411 137.654 588.832ZM142.166 588.864C142.166 589.589 142.315 590.251 142.614 590.848C142.912 591.424 143.318 591.883 143.83 592.224C144.342 592.565 144.918 592.736 145.558 592.736C146.262 592.736 146.87 592.565 147.382 592.224C147.894 591.883 148.288 591.424 148.566 590.848C148.843 590.251 148.982 589.589 148.982 588.864C148.982 588.117 148.843 587.456 148.566 586.88C148.288 586.304 147.894 585.845 147.382 585.504C146.87 585.163 146.262 584.992 145.558 584.992C144.918 584.992 144.342 585.163 143.83 585.504C143.318 585.845 142.912 586.304 142.614 586.88C142.315 587.456 142.166 588.117 142.166 588.864ZM161.535 596.672C160.276 596.672 159.22 596.288 158.367 595.52C157.513 594.731 157.065 593.717 157.023 592.48V582.016H161.503V590.816C161.545 591.435 161.705 591.936 161.983 592.32C162.26 592.683 162.729 592.864 163.391 592.864C164.052 592.864 164.617 592.64 165.087 592.192C165.577 591.744 165.951 591.136 166.207 590.368C166.484 589.579 166.623 588.693 166.623 587.712V582.016H171.103V596H167.039L166.687 593.44L166.751 593.728C166.431 594.304 166.025 594.816 165.535 595.264C165.044 595.712 164.457 596.053 163.775 596.288C163.113 596.544 162.367 596.672 161.535 596.672ZM179.742 582.016L180.158 585.856L180.062 585.28C180.468 584.448 181.022 583.744 181.726 583.168C182.43 582.571 183.124 582.112 183.806 581.792C184.51 581.472 185.044 581.312 185.406 581.312L185.182 585.792C184.137 585.664 183.241 585.835 182.494 586.304C181.748 586.773 181.172 587.392 180.766 588.16C180.361 588.928 180.158 589.717 180.158 590.528V596H175.71V582.016H179.742ZM192.899 582.016L193.251 584.512L193.187 584.288C193.678 583.413 194.371 582.709 195.267 582.176C196.163 581.621 197.262 581.344 198.563 581.344C199.886 581.344 200.985 581.739 201.859 582.528C202.755 583.296 203.214 584.299 203.235 585.536V596H198.755V587.2C198.734 586.581 198.563 586.091 198.243 585.728C197.945 585.344 197.433 585.152 196.707 585.152C196.025 585.152 195.427 585.376 194.915 585.824C194.403 586.272 194.009 586.88 193.731 587.648C193.454 588.416 193.315 589.301 193.315 590.304V596H188.835V582.016H192.899ZM214.715 596.384C213.009 596.384 211.558 596.064 210.363 595.424C209.19 594.784 208.294 593.899 207.675 592.768C207.057 591.637 206.747 590.336 206.747 588.864C206.747 587.456 207.11 586.187 207.835 585.056C208.561 583.925 209.531 583.029 210.747 582.368C211.963 581.685 213.318 581.344 214.811 581.344C216.817 581.344 218.459 581.931 219.739 583.104C221.041 584.256 221.883 585.931 222.267 588.128L211.387 591.584L210.395 589.152L218.267 586.496L217.339 586.912C217.169 586.357 216.859 585.877 216.411 585.472C215.985 585.045 215.334 584.832 214.459 584.832C213.798 584.832 213.211 584.992 212.699 585.312C212.209 585.611 211.825 586.048 211.547 586.624C211.291 587.179 211.163 587.84 211.163 588.608C211.163 589.483 211.323 590.219 211.643 590.816C211.963 591.392 212.401 591.829 212.955 592.128C213.51 592.427 214.129 592.576 214.811 592.576C215.302 592.576 215.771 592.491 216.219 592.32C216.689 592.149 217.147 591.925 217.595 591.648L219.579 594.976C218.833 595.403 218.022 595.744 217.147 596C216.294 596.256 215.483 596.384 214.715 596.384ZM226.643 602.72L235.955 582.016H239.987L230.963 602.72H226.643ZM230.387 596.064L223.539 582.016H228.563L233.843 593.824L230.387 596.064ZM254.335 575.872H258.815V581.952H262.207V585.44H258.815V596H254.335V585.44H252.159V581.952H254.335V575.872ZM264.529 588.832C264.529 587.403 264.859 586.123 265.521 584.992C266.203 583.861 267.153 582.976 268.369 582.336C269.585 581.675 270.982 581.344 272.561 581.344C274.161 581.344 275.547 581.675 276.721 582.336C277.894 582.976 278.79 583.861 279.409 584.992C280.049 586.123 280.369 587.403 280.369 588.832C280.369 590.261 280.049 591.552 279.409 592.704C278.79 593.835 277.894 594.731 276.721 595.392C275.547 596.053 274.139 596.384 272.497 596.384C270.961 596.384 269.585 596.085 268.369 595.488C267.174 594.891 266.235 594.027 265.553 592.896C264.87 591.765 264.529 590.411 264.529 588.832ZM269.041 588.864C269.041 589.589 269.19 590.251 269.489 590.848C269.787 591.424 270.193 591.883 270.705 592.224C271.217 592.565 271.793 592.736 272.433 592.736C273.137 592.736 273.745 592.565 274.257 592.224C274.769 591.883 275.163 591.424 275.441 590.848C275.718 590.251 275.857 589.589 275.857 588.864C275.857 588.117 275.718 587.456 275.441 586.88C275.163 586.304 274.769 585.845 274.257 585.504C273.745 585.163 273.137 584.992 272.433 584.992C271.793 584.992 271.217 585.163 270.705 585.504C270.193 585.845 269.787 586.304 269.489 586.88C269.19 587.456 269.041 588.117 269.041 588.864ZM289.594 596.384C288.292 596.384 287.13 596.085 286.106 595.488C285.082 594.869 284.271 593.984 283.674 592.832C283.098 591.68 282.81 590.315 282.81 588.736C282.81 587.157 283.13 585.813 283.77 584.704C284.41 583.595 285.284 582.752 286.394 582.176C287.503 581.6 288.762 581.312 290.17 581.312C291.066 581.312 291.919 581.451 292.73 581.728C293.562 582.005 294.255 582.432 294.81 583.008V584.416V570.752H299.258V596H294.778V593.28L295.13 594.24C294.404 594.837 293.594 595.349 292.698 595.776C291.802 596.181 290.767 596.384 289.594 596.384ZM291.066 592.608C291.663 592.608 292.186 592.533 292.634 592.384C293.103 592.213 293.508 591.979 293.85 591.68C294.212 591.36 294.522 590.965 294.778 590.496V587.072C294.607 586.603 294.34 586.208 293.978 585.888C293.636 585.547 293.21 585.291 292.698 585.12C292.207 584.928 291.663 584.832 291.066 584.832C290.404 584.832 289.786 585.003 289.21 585.344C288.655 585.664 288.207 586.112 287.866 586.688C287.524 587.264 287.354 587.925 287.354 588.672C287.354 589.419 287.524 590.091 287.866 590.688C288.207 591.285 288.655 591.755 289.21 592.096C289.786 592.437 290.404 592.608 291.066 592.608ZM309.755 596.384C308.453 596.384 307.269 596.128 306.203 595.616C305.157 595.083 304.325 594.272 303.707 593.184C303.088 592.096 302.779 590.709 302.779 589.024C302.779 587.445 303.099 586.08 303.739 584.928C304.379 583.776 305.221 582.891 306.266 582.272C307.312 581.632 308.421 581.312 309.595 581.312C310.981 581.312 312.027 581.547 312.731 582.016C313.456 582.464 314.053 582.965 314.523 583.52L314.331 584.064L314.747 582.016H318.907V596H314.427V592.96L314.779 593.92C314.736 593.92 314.608 594.048 314.395 594.304C314.181 594.539 313.861 594.827 313.435 595.168C313.029 595.488 312.517 595.765 311.899 596C311.301 596.256 310.587 596.384 309.755 596.384ZM311.035 592.736C311.568 592.736 312.048 592.661 312.475 592.512C312.901 592.341 313.275 592.107 313.595 591.808C313.915 591.488 314.192 591.093 314.427 590.624V587.2C314.256 586.731 314 586.336 313.659 586.016C313.317 585.675 312.912 585.419 312.443 585.248C311.973 585.056 311.451 584.96 310.875 584.96C310.235 584.96 309.637 585.131 309.083 585.472C308.549 585.792 308.123 586.24 307.803 586.816C307.483 587.392 307.323 588.053 307.323 588.8C307.323 589.547 307.493 590.219 307.835 590.816C308.176 591.413 308.624 591.883 309.179 592.224C309.755 592.565 310.373 592.736 311.035 592.736ZM324.643 602.72L333.955 582.016H337.987L328.963 602.72H324.643ZM328.387 596.064L321.539 582.016H326.563L331.843 593.824L328.387 596.064ZM339.465 571.52H343.465V589.632H339.465V571.52ZM341.577 596.448C340.809 596.448 340.179 596.245 339.689 595.84C339.198 595.413 338.953 594.859 338.953 594.176C338.953 593.515 339.198 592.96 339.689 592.512C340.201 592.064 340.83 591.84 341.577 591.84C342.323 591.84 342.931 592.064 343.401 592.512C343.891 592.96 344.137 593.515 344.137 594.176C344.137 594.859 343.902 595.413 343.433 595.84C342.963 596.245 342.345 596.448 341.577 596.448Z" fill="#FAFAFA"/>
<rect x="38" y="35" width="46" height="46" rx="23" fill="#FAFAFA"/>
<path d="M68 51L54 65M54 51L68 65" stroke="black" stroke-width="1.5" stroke-linecap="round" stroke-linejoin="round"/>
</g>
<defs>
<linearGradient id="paint0_linear_394_395" x1="296.5" y1="-76" x2="296.5" y2="492" gradientUnits="userSpaceOnUse">
<stop stop-color="#A8E063"/>
<stop offset="1" stop-color="#56AB2F"/>
</linearGradient>
<linearGradient id="paint1_linear_394_395" x1="0.000178371" y1="536.001" x2="625" y2="1022" gradientUnits="userSpaceOnUse">
<stop stop-color="#95D457"/>
<stop offset="0.50837" stop-color="#77BB77"/>
<stop offset="1" stop-color="#61B236"/>
</linearGradient>
<clipPath id="clip0_394_395">
<path d="M0 0H646C657.046 0 666 8.95431 666 20V1004C666 1015.05 657.046 1024 646 1024H0V0Z" fill="white"/>
</clipPath>
</defs>
</svg>
