<svg width="24" height="25" viewBox="0 0 24 25" fill="none" xmlns="http://www.w3.org/2000/svg">
<path d="M20.8472 15.248L16.4306 13.269L16.4184 13.2633C16.1892 13.1653 15.939 13.1259 15.6907 13.1488C15.4424 13.1717 15.2037 13.2562 14.9963 13.3946C14.9718 13.4107 14.9483 13.4282 14.9259 13.4471L12.6441 15.3924C11.1984 14.6902 9.70595 13.209 9.00376 11.7821L10.9519 9.46551C10.9706 9.44208 10.9884 9.41864 11.0053 9.39333C11.1407 9.18642 11.2229 8.94925 11.2445 8.70293C11.2661 8.4566 11.2264 8.20876 11.1291 7.98145V7.9702L9.14438 3.54614C9.0157 3.2492 8.79444 3.00184 8.51362 2.84099C8.2328 2.68013 7.9075 2.61441 7.58626 2.65364C6.31592 2.8208 5.14986 3.44467 4.30588 4.40873C3.4619 5.37278 2.99771 6.6111 3.00001 7.89239C3.00001 15.3361 9.05626 21.3924 16.5 21.3924C17.7813 21.3947 19.0196 20.9305 19.9837 20.0865C20.9477 19.2425 21.5716 18.0765 21.7388 16.8061C21.7781 16.485 21.7125 16.1598 21.5518 15.879C21.3911 15.5982 21.144 15.3768 20.8472 15.248ZM16.5 19.8924C13.3185 19.8889 10.2682 18.6235 8.01856 16.3738C5.76888 14.1241 4.50348 11.0739 4.50001 7.89239C4.49648 6.97691 4.82631 6.09145 5.42789 5.40136C6.02947 4.71128 6.86167 4.26376 7.76907 4.14239C7.7687 4.14613 7.7687 4.1499 7.76907 4.15364L9.73782 8.55989L7.80001 10.8793C7.7803 10.9019 7.76243 10.926 7.74657 10.9515C7.60549 11.1679 7.52273 11.4172 7.5063 11.6751C7.48988 11.9329 7.54035 12.1907 7.65282 12.4233C8.5022 14.1605 10.2525 15.8977 12.0084 16.7461C12.2428 16.8576 12.502 16.9063 12.7608 16.8876C13.0196 16.8688 13.2692 16.7833 13.485 16.6393C13.5091 16.6231 13.5323 16.6056 13.5544 16.5868L15.8334 14.6424L20.2397 16.6158H20.25C20.1301 17.5245 19.6833 18.3584 18.9931 18.9615C18.3028 19.5645 17.4166 19.8955 16.5 19.8924Z" fill="#898483"/>
</svg>
