<svg width="33" height="40" viewBox="0 0 33 40" fill="none" xmlns="http://www.w3.org/2000/svg">
<path d="M22.625 12.6246L20.0875 10.1746L22.0125 8.24961H9.4125V4.74961H22.0125L20.0875 2.82461L22.5375 0.287109L28.75 6.49961L22.625 12.6246ZM4.25 32.7496H28.75V23.9996H4.25V32.7496ZM8.625 30.9996C9.38333 30.9996 10.0104 30.7517 10.5062 30.2559C11.0021 29.76 11.25 29.1329 11.25 28.3746C11.25 27.6163 11.0021 26.9892 10.5062 26.4934C10.0104 25.9975 9.38333 25.7496 8.625 25.7496C7.86667 25.7496 7.23958 25.9975 6.74375 26.4934C6.24792 26.9892 6 27.6163 6 28.3746C6 29.1329 6.24792 29.76 6.74375 30.2559C7.23958 30.7517 7.86667 30.9996 8.625 30.9996ZM24.375 30.9996C25.1333 30.9996 25.7604 30.7517 26.2563 30.2559C26.7521 29.76 27 29.1329 27 28.3746C27 27.6163 26.7521 26.9892 26.2563 26.4934C25.7604 25.9975 25.1333 25.7496 24.375 25.7496C23.6167 25.7496 22.9896 25.9975 22.4937 26.4934C21.9979 26.9892 21.75 27.6163 21.75 28.3746C21.75 29.1329 21.9979 29.76 22.4937 30.2559C22.9896 30.7517 23.6167 30.9996 24.375 30.9996ZM0.75 20.4996H27.35L25.5125 15.2496H7.4875L9.4125 17.1746L6.9625 19.7121L0.75 13.4996L6.9625 7.28711L9.4125 9.82461L7.4875 11.7496H26.125C26.7083 11.7496 27.2188 11.91 27.6562 12.2309C28.0938 12.5517 28.4 12.9746 28.575 13.4996L32.25 23.9996V37.9996C32.25 38.4954 32.0823 38.9111 31.7469 39.2465C31.4115 39.5819 30.9958 39.7496 30.5 39.7496H28.75C28.2542 39.7496 27.8385 39.5819 27.5031 39.2465C27.1677 38.9111 27 38.4954 27 37.9996V36.2496H6V37.9996C6 38.4954 5.83229 38.9111 5.49687 39.2465C5.16146 39.5819 4.74583 39.7496 4.25 39.7496H2.5C2.00417 39.7496 1.58854 39.5819 1.25313 39.2465C0.917708 38.9111 0.75 38.4954 0.75 37.9996V20.4996Z" fill="#77BB77"/>
</svg>
