<svg width="33" height="32" viewBox="0 0 33 32" fill="none" xmlns="http://www.w3.org/2000/svg">
<path fill-rule="evenodd" clip-rule="evenodd" d="M6 13.375C5.53587 13.375 5.09075 13.5594 4.76256 13.8876C4.43437 14.2158 4.25 14.6609 4.25 15.125V16.875C4.25 17.3391 4.43437 17.7842 4.76256 18.1124C5.09075 18.4406 5.53587 18.625 6 18.625H7.75C8.21413 18.625 8.65925 18.4406 8.98744 18.1124C9.31563 17.7842 9.5 17.3391 9.5 16.875V15.125C9.5 14.6609 9.31563 14.2158 8.98744 13.8876C8.65925 13.5594 8.21413 13.375 7.75 13.375H6ZM6 15.125V16.875H7.75V15.125H6ZM11.25 15.125C11.25 14.6609 11.4344 14.2158 11.7626 13.8876C12.0908 13.5594 12.5359 13.375 13 13.375H14.75C15.2141 13.375 15.6592 13.5594 15.9874 13.8876C16.3156 14.2158 16.5 14.6609 16.5 15.125V16.875C16.5 17.3391 16.3156 17.7842 15.9874 18.1124C15.6592 18.4406 15.2141 18.625 14.75 18.625H13C12.5359 18.625 12.0908 18.4406 11.7626 18.1124C11.4344 17.7842 11.25 17.3391 11.25 16.875V15.125ZM13 15.125H14.75V16.875H13V15.125ZM20 13.375C19.5359 13.375 19.0908 13.5594 18.7626 13.8876C18.4344 14.2158 18.25 14.6609 18.25 15.125V16.875C18.25 17.3391 18.4344 17.7842 18.7626 18.1124C19.0908 18.4406 19.5359 18.625 20 18.625H21.75C22.2141 18.625 22.6592 18.4406 22.9874 18.1124C23.3156 17.7842 23.5 17.3391 23.5 16.875V15.125C23.5 14.6609 23.3156 14.2158 22.9874 13.8876C22.6592 13.5594 22.2141 13.375 21.75 13.375H20ZM20 15.125V16.875H21.75V15.125H20ZM4.25 22.125C4.25 21.6609 4.43437 21.2158 4.76256 20.8876C5.09075 20.5594 5.53587 20.375 6 20.375H7.75C8.21413 20.375 8.65925 20.5594 8.98744 20.8876C9.31563 21.2158 9.5 21.6609 9.5 22.125V23.875C9.5 24.3391 9.31563 24.7843 8.98744 25.1124C8.65925 25.4406 8.21413 25.625 7.75 25.625H6C5.53587 25.625 5.09075 25.4406 4.76256 25.1124C4.43437 24.7843 4.25 24.3391 4.25 23.875V22.125ZM7.75 22.125V23.875H6V22.125H7.75ZM13 20.375C12.5359 20.375 12.0908 20.5594 11.7626 20.8876C11.4344 21.2158 11.25 21.6609 11.25 22.125V23.875C11.25 24.3391 11.4344 24.7843 11.7626 25.1124C12.0908 25.4406 12.5359 25.625 13 25.625H14.75C15.2141 25.625 15.6592 25.4406 15.9874 25.1124C16.3156 24.7843 16.5 24.3391 16.5 23.875V22.125C16.5 21.6609 16.3156 21.2158 15.9874 20.8876C15.6592 20.5594 15.2141 20.375 14.75 20.375H13ZM14.75 22.125H13V23.875H14.75V22.125Z" fill="#77BB77"/>
<path d="M27 23.4375C27 23.2054 26.9078 22.9829 26.7437 22.8188C26.5796 22.6547 26.3571 22.5625 26.125 22.5625C25.8929 22.5625 25.6704 22.6547 25.5063 22.8188C25.3422 22.9829 25.25 23.2054 25.25 23.4375V25.9873L26.3814 27.1186C26.5464 27.278 26.7674 27.3662 26.9969 27.3642C27.2263 27.3622 27.4457 27.2702 27.608 27.108C27.7702 26.9457 27.8622 26.7263 27.8642 26.4969C27.8662 26.2674 27.778 26.0464 27.6186 25.8814L27 25.2627V23.4375Z" fill="#77BB77"/>
<path fill-rule="evenodd" clip-rule="evenodd" d="M6 1.125C6 0.892936 6.09219 0.670376 6.25628 0.506282C6.42038 0.342187 6.64294 0.25 6.875 0.25C7.10706 0.25 7.32962 0.342187 7.49372 0.506282C7.65781 0.670376 7.75 0.892936 7.75 1.125V5.5C7.75 5.73206 7.84219 5.95462 8.00628 6.11872C8.17038 6.28281 8.39294 6.375 8.625 6.375C8.85706 6.375 9.07962 6.28281 9.24372 6.11872C9.40781 5.95462 9.5 5.73206 9.5 5.5V2.875H18.25V1.125C18.25 0.892936 18.3422 0.670376 18.5063 0.506282C18.6704 0.342187 18.8929 0.25 19.125 0.25C19.3571 0.25 19.5796 0.342187 19.7437 0.506282C19.9078 0.670376 20 0.892936 20 1.125V5.5C20 5.73206 20.0922 5.95462 20.2563 6.11872C20.4204 6.28281 20.6429 6.375 20.875 6.375C21.1071 6.375 21.3296 6.28281 21.4937 6.11872C21.6578 5.95462 21.75 5.73206 21.75 5.5V2.875H24.375C25.0712 2.875 25.7389 3.15156 26.2312 3.64384C26.7234 4.13613 27 4.80381 27 5.5V19.5612C28.5326 19.7828 29.9245 20.5765 30.8955 21.7827C31.8665 22.989 32.3447 24.5182 32.2339 26.0628C32.123 27.6073 31.4313 29.0526 30.2979 30.1077C29.1645 31.1629 27.6735 31.7497 26.125 31.75C25.1374 31.7508 24.1643 31.5124 23.2889 31.0553C22.4135 30.5982 21.6618 29.9359 21.0981 29.125H3.375C2.67881 29.125 2.01113 28.8484 1.51884 28.3562C1.02656 27.8639 0.75 27.1962 0.75 26.5V5.5C0.75 4.80381 1.02656 4.13613 1.51884 3.64384C2.01113 3.15156 2.67881 2.875 3.375 2.875H6V1.125ZM20 25.625C19.9996 24.1519 20.5302 22.728 21.4944 21.6143C22.4587 20.5006 23.792 19.7717 25.25 19.5612V10.75H2.5V26.5C2.5 26.7321 2.59219 26.9546 2.75628 27.1187C2.92038 27.2828 3.14294 27.375 3.375 27.375H20.2537C20.085 26.807 19.9995 26.2175 20 25.625ZM30.5 25.625C30.5 26.7853 30.0391 27.8981 29.2186 28.7186C28.3981 29.5391 27.2853 30 26.125 30C24.9647 30 23.8519 29.5391 23.0314 28.7186C22.2109 27.8981 21.75 26.7853 21.75 25.625C21.75 24.4647 22.2109 23.3519 23.0314 22.5314C23.8519 21.7109 24.9647 21.25 26.125 21.25C27.2853 21.25 28.3981 21.7109 29.2186 22.5314C30.0391 23.3519 30.5 24.4647 30.5 25.625Z" fill="#77BB77"/>
</svg>
