<svg width="15" height="16" viewBox="0 0 15 16" fill="none" xmlns="http://www.w3.org/2000/svg">
<path d="M14.5 15L11.1221 11.6221M11.1221 11.6221C11.6999 11.0444 12.1583 10.3584 12.471 9.60349C12.7837 8.84856 12.9446 8.03944 12.9446 7.22231C12.9446 6.40519 12.7837 5.59606 12.471 4.84114C12.1583 4.08621 11.6999 3.40027 11.1221 2.82247C10.5444 2.24468 9.85841 1.78635 9.10349 1.47365C8.34856 1.16094 7.53944 1 6.72231 1C5.90519 1 5.09606 1.16094 4.34114 1.47365C3.58621 1.78635 2.90027 2.24468 2.32247 2.82247C1.15556 3.98938 0.5 5.57205 0.5 7.22231C0.5 8.87257 1.15556 10.4552 2.32247 11.6221C3.48938 12.7891 5.07205 13.4446 6.72231 13.4446C8.37257 13.4446 9.95524 12.7891 11.1221 11.6221Z" stroke="white" stroke-linecap="round" stroke-linejoin="round"/>
</svg>
