<svg width="441" height="511" viewBox="0 0 441 511" fill="none" xmlns="http://www.w3.org/2000/svg">
<g clip-path="url(#clip0_441_288)" filter="url(#filter0_d_441_288)">
<g filter="url(#filter1_d_441_288)">
<path d="M135.727 406.494L131.85 480.944C131.85 480.944 295.868 324.836 316.302 279.16C336.735 233.485 298.272 120.498 298.272 120.498L212.931 167.375L135.727 406.494Z" fill="#A56C43"/>
</g>
<path d="M387.218 89.2451L412.46 91.6491C412.46 91.6491 425.682 120.497 384.814 122.901L387.218 89.2451Z" fill="#A56C43"/>
<path d="M387.218 133.718L412.46 136.122C412.46 136.122 425.682 164.969 384.814 167.373L387.218 133.718Z" fill="#A56C43"/>
<path d="M387.218 181.798L412.46 184.202C412.46 184.202 425.682 213.049 384.814 215.453L387.218 181.798Z" fill="#A56C43"/>
<path d="M380.006 229.878L405.247 232.282C405.247 232.282 418.469 261.13 377.602 263.534L380.006 229.878Z" fill="#A56C43"/>
<path d="M399.507 100.835H397.592V48.3663C397.592 44.3784 396.807 40.4296 395.281 36.7453C393.755 33.0609 391.518 29.7133 388.698 26.8934C385.878 24.0735 382.53 21.8367 378.846 20.3106C375.162 18.7845 371.213 17.999 367.225 17.999H256.064C252.076 17.999 248.127 18.7845 244.443 20.3106C240.758 21.8367 237.411 24.0735 234.591 26.8933C231.771 29.7132 229.534 33.0608 228.008 36.7452C226.482 40.4295 225.696 44.3783 225.696 48.3662V336.212C225.696 340.2 226.482 344.148 228.008 347.833C229.534 351.517 231.771 354.865 234.591 357.685C237.411 360.505 240.758 362.741 244.442 364.267C248.127 365.794 252.076 366.579 256.064 366.579H367.225C375.279 366.579 383.003 363.38 388.698 357.685C394.393 351.99 397.592 344.266 397.592 336.212V138.183H399.507V100.835Z" fill="#3F3D56"/>
<path d="M391.126 48.5776V336.001C391.126 338.979 390.54 341.928 389.401 344.68C388.261 347.431 386.591 349.931 384.485 352.037C382.379 354.143 379.879 355.813 377.128 356.952C374.377 358.092 371.428 358.678 368.45 358.678H256.751C253.773 358.678 250.825 358.091 248.073 356.952C245.322 355.812 242.822 354.142 240.716 352.036C238.611 349.931 236.94 347.431 235.801 344.679C234.661 341.928 234.075 338.979 234.075 336.001V48.5776C234.075 45.5997 234.661 42.6509 235.801 39.8996C236.94 37.1484 238.611 34.6485 240.716 32.5428C242.822 30.4371 245.322 28.7667 248.073 27.6272C250.825 26.4877 253.773 25.9012 256.751 25.9014H270.307C269.64 27.5372 269.385 29.3121 269.565 31.0696C269.745 32.8272 270.354 34.5136 271.34 35.9801C272.325 37.4466 273.656 38.6482 275.215 39.4791C276.774 40.31 278.514 40.7447 280.281 40.7449H343.966C345.733 40.7436 347.472 40.3081 349.03 39.4769C350.589 38.6457 351.919 37.4441 352.904 35.978C353.89 34.5118 354.499 32.826 354.68 31.0689C354.86 29.3118 354.606 27.5372 353.94 25.9014H368.45C371.428 25.9012 374.377 26.4877 377.128 27.6272C379.879 28.7668 382.379 30.4371 384.485 32.5428C386.59 34.6485 388.261 37.1484 389.4 39.8996C390.54 42.6509 391.126 45.5997 391.126 48.5776Z" fill="#E8F4E8"/>
<path opacity="0.2" d="M412.325 91.2841L397.458 96.7607L397.726 97.4885L412.593 92.0119L412.325 91.2841Z" fill="black"/>
<path opacity="0.2" d="M412.325 136.267L397.458 141.743L397.726 142.471L412.593 136.994L412.325 136.267Z" fill="black"/>
<path opacity="0.2" d="M412.325 184.347L397.458 189.823L397.726 190.551L412.593 185.074L412.325 184.347Z" fill="black"/>
<path opacity="0.2" d="M404.536 232.443L397.298 235.917L397.633 236.616L404.872 233.142L404.536 232.443Z" fill="black"/>
<path d="M259.629 220.541L250.594 240.479L234.075 276.937V212.452L259.629 220.541Z" fill="#A56C43"/>
<path d="M360.015 138.935C360.015 166.237 334.77 162.108 303.629 162.108C272.488 162.108 247.243 166.237 247.243 138.935C247.243 111.634 259.575 63.2393 303.629 63.2393C349.201 63.2392 360.015 111.634 360.015 138.935Z" fill="#2F2E41"/>
<path d="M389.07 234.617L391.125 247.46V336.001C391.133 339.916 390.12 343.765 388.186 347.169L367.542 310.975L360.104 235.176L358.251 216.245L386.224 216.835L389.07 234.617Z" fill="#A56C43"/>
<path d="M391.125 231.499C390.132 228.273 388.45 222.821 386.519 216.741C383.122 206.031 378.965 193.351 376.499 187.31C371.791 175.778 347.804 180.4 347.804 180.4L265.622 177.321C265.622 177.321 262.559 176.918 248.778 175.088C243 174.32 237.967 182.416 234.074 192.087V222.526L253.222 223.984C251.682 229.356 250.799 234.895 250.593 240.48C250.376 248.118 251.725 256.657 257.549 261.954C270.105 273.4 274.145 324.926 274.145 324.926L265.312 358.677H368.449C371.427 358.677 374.376 358.091 377.127 356.952C379.879 355.812 382.379 354.142 384.484 352.036C386.59 349.93 388.26 347.43 389.4 344.679C390.539 341.928 391.126 338.979 391.125 336.001V323.499C384.618 312.968 379.275 307.671 379.275 307.671L360.825 235.105L389.07 234.617L391.125 234.578V231.499Z" fill="#2F2E41"/>
<path d="M332.941 148.192C347.759 133.374 347.759 109.35 332.941 94.533C318.124 79.7155 294.1 79.7156 279.282 94.533C264.465 109.35 264.465 133.374 279.282 148.192C294.1 163.009 318.124 163.009 332.941 148.192Z" fill="#A56C43"/>
<path d="M259.603 120.4H274.609L281.23 101.862L282.554 120.4H289.727L293.589 109.586L294.361 120.4H347.657C347.657 109.747 343.426 99.531 335.893 91.9985C328.361 84.4661 318.145 80.2344 307.492 80.2344H299.768C289.115 80.2344 278.899 84.4661 271.367 91.9985C263.834 99.531 259.603 109.747 259.603 120.4Z" fill="#2F2E41"/>
<path d="M22.5 445.269L157.038 291.78L161.845 193.217L212.329 109.078L226.753 73.0186C226.753 73.0186 260.408 76.6245 232.763 145.138L221.344 181.798C231.637 203.968 229.214 228.117 229.214 252.56V336.567C229.214 356.348 142.705 464.096 131.732 480.555L22.5 445.269Z" fill="#A56C43"/>
<path opacity="0.2" d="M222.796 116.208L212.759 111.275L213.101 110.579L222.374 115.137L236.372 78.4365L237.096 78.7134L222.796 116.208Z" fill="black"/>
<path d="M313.666 344.756C325.23 344.756 334.605 335.381 334.605 323.817C334.605 312.253 325.23 302.878 313.666 302.878C302.101 302.878 292.727 312.253 292.727 323.817C292.727 335.381 302.101 344.756 313.666 344.756Z" fill="#77BB77"/>
<path d="M264.808 338.714C272.607 338.714 278.929 332.391 278.929 324.593C278.929 316.794 272.607 310.472 264.808 310.472C257.01 310.472 250.688 316.794 250.688 324.593C250.688 332.391 257.01 338.714 264.808 338.714Z" fill="white"/>
<path d="M264.808 339.326C261.894 339.326 259.045 338.462 256.622 336.843C254.199 335.224 252.31 332.923 251.195 330.23C250.08 327.538 249.788 324.575 250.356 321.717C250.925 318.858 252.328 316.233 254.389 314.172C256.45 312.111 259.075 310.708 261.933 310.14C264.792 309.571 267.755 309.863 270.447 310.978C273.139 312.093 275.441 313.982 277.06 316.405C278.679 318.828 279.543 321.677 279.543 324.591C279.539 328.498 277.985 332.243 275.222 335.006C272.46 337.768 268.715 339.322 264.808 339.326ZM264.808 311.084C262.137 311.084 259.525 311.877 257.304 313.361C255.083 314.845 253.352 316.954 252.329 319.422C251.307 321.891 251.039 324.606 251.561 327.226C252.082 329.847 253.368 332.253 255.257 334.142C257.146 336.031 259.553 337.318 262.173 337.839C264.793 338.36 267.509 338.093 269.977 337.07C272.445 336.048 274.555 334.317 276.039 332.095C277.523 329.874 278.315 327.263 278.315 324.591C278.311 321.01 276.887 317.577 274.355 315.045C271.822 312.513 268.389 311.088 264.808 311.084Z" fill="#CBCBCB"/>
<path d="M267.836 329.506H254.074C254.057 329.506 254.039 329.505 254.022 329.502L260.532 318.228C260.571 318.157 260.629 318.099 260.699 318.058C260.768 318.017 260.848 317.996 260.928 317.996C261.009 317.996 261.088 318.017 261.158 318.058C261.228 318.099 261.285 318.157 261.325 318.228L265.693 325.793L265.902 326.155L267.836 329.506Z" fill="#E5E5E5"/>
<path d="M275.498 329.505H263.595L265.901 326.155L266.067 325.914L269.073 321.548C269.126 321.481 269.193 321.426 269.268 321.387C269.344 321.347 269.427 321.325 269.513 321.319C269.598 321.314 269.683 321.327 269.763 321.357C269.843 321.387 269.916 321.434 269.976 321.494C269.992 321.511 270.006 321.529 270.02 321.548L275.498 329.505Z" fill="#E5E5E5"/>
<path d="M361.749 338.714C369.548 338.714 375.87 332.391 375.87 324.593C375.87 316.794 369.548 310.472 361.749 310.472C353.95 310.472 347.628 316.794 347.628 324.593C347.628 332.391 353.95 338.714 361.749 338.714Z" fill="white"/>
<path d="M361.75 339.326C358.835 339.326 355.986 338.462 353.563 336.843C351.14 335.224 349.252 332.923 348.136 330.23C347.021 327.538 346.729 324.575 347.298 321.717C347.866 318.858 349.27 316.233 351.33 314.172C353.391 312.111 356.017 310.708 358.875 310.14C361.733 309.571 364.696 309.863 367.388 310.978C370.081 312.093 372.382 313.982 374.001 316.405C375.62 318.828 376.484 321.677 376.484 324.591C376.48 328.498 374.926 332.243 372.164 335.006C369.401 337.768 365.656 339.322 361.75 339.326ZM361.75 311.084C359.078 311.084 356.467 311.877 354.245 313.361C352.024 314.845 350.293 316.954 349.271 319.422C348.248 321.891 347.981 324.606 348.502 327.226C349.023 329.847 350.31 332.253 352.199 334.142C354.088 336.031 356.494 337.318 359.114 337.839C361.735 338.36 364.45 338.093 366.918 337.07C369.387 336.048 371.496 334.317 372.98 332.095C374.464 329.874 375.257 327.263 375.257 324.591C375.253 321.01 373.828 317.577 371.296 315.045C368.764 312.513 365.331 311.088 361.75 311.084Z" fill="#CBCBCB"/>
<path d="M367.582 323.091L367.123 323.55V320.225C367.123 320.047 367.052 319.876 366.926 319.75C366.8 319.625 366.629 319.554 366.451 319.554H356.375C356.287 319.553 356.199 319.571 356.117 319.604C356.036 319.638 355.961 319.687 355.899 319.75C355.836 319.812 355.786 319.886 355.753 319.968C355.719 320.049 355.701 320.137 355.701 320.225C355.701 320.314 355.719 320.401 355.753 320.483C355.786 320.565 355.836 320.639 355.899 320.701C355.961 320.764 356.036 320.813 356.117 320.847C356.199 320.88 356.287 320.897 356.375 320.897H365.779V323.55L365.321 323.091C365.227 322.997 365.107 322.933 364.977 322.907C364.846 322.881 364.711 322.894 364.588 322.945C364.466 322.996 364.361 323.082 364.287 323.192C364.213 323.303 364.174 323.433 364.174 323.566V323.599C364.174 323.777 364.244 323.948 364.37 324.074L365.976 325.68C366.039 325.742 366.113 325.792 366.194 325.825C366.276 325.859 366.363 325.876 366.451 325.876C366.539 325.876 366.627 325.859 366.708 325.825C366.79 325.792 366.864 325.742 366.926 325.68L368.532 324.074C368.658 323.948 368.729 323.777 368.729 323.599V323.566C368.729 323.433 368.689 323.303 368.616 323.192C368.542 323.082 368.437 322.996 368.314 322.945C368.191 322.894 368.056 322.881 367.926 322.907C367.796 322.933 367.676 322.997 367.582 323.091Z" fill="#E5E5E5"/>
<path d="M367.123 328.286H357.719V325.633L358.178 326.092C358.272 326.186 358.392 326.25 358.522 326.276C358.652 326.302 358.787 326.289 358.91 326.238C359.033 326.187 359.138 326.101 359.212 325.991C359.285 325.88 359.325 325.75 359.325 325.617V325.584C359.325 325.406 359.254 325.235 359.128 325.109L357.522 323.503C357.46 323.441 357.386 323.392 357.304 323.358C357.223 323.324 357.135 323.307 357.047 323.307C356.959 323.307 356.872 323.324 356.79 323.358C356.709 323.392 356.635 323.441 356.572 323.503L354.966 325.109C354.84 325.235 354.77 325.406 354.77 325.584V325.618C354.77 325.75 354.809 325.88 354.883 325.991C354.957 326.101 355.062 326.187 355.184 326.238C355.307 326.289 355.442 326.302 355.573 326.276C355.703 326.25 355.823 326.186 355.917 326.092L356.375 325.633V328.958C356.375 329.136 356.446 329.307 356.572 329.433C356.698 329.559 356.869 329.629 357.047 329.629H367.123C367.211 329.63 367.299 329.613 367.381 329.579C367.463 329.545 367.537 329.496 367.6 329.433C367.662 329.371 367.712 329.297 367.746 329.215C367.78 329.134 367.797 329.046 367.797 328.958C367.797 328.869 367.78 328.782 367.746 328.7C367.712 328.618 367.662 328.544 367.6 328.482C367.537 328.419 367.463 328.37 367.381 328.336C367.299 328.303 367.211 328.286 367.123 328.286Z" fill="#E5E5E5"/>
<path d="M277.191 53.335H242.539V54.886H277.191V53.335Z" fill="white"/>
<path d="M329.926 53.335H295.274V54.886H329.926V53.335Z" fill="white"/>
<path d="M382.662 53.335H348.011V54.886H382.662V53.335Z" fill="white"/>
<path d="M277.191 290.648H242.539V292.199H277.191V290.648Z" fill="white"/>
<path d="M329.926 290.648H295.274V292.199H329.926V290.648Z" fill="white"/>
<path d="M382.662 290.648H348.011V292.199H382.662V290.648Z" fill="white"/>
</g>
<defs>
<filter id="filter0_d_441_288" x="0.5" y="0" width="440" height="510.944" filterUnits="userSpaceOnUse" color-interpolation-filters="sRGB">
<feFlood flood-opacity="0" result="BackgroundImageFix"/>
<feColorMatrix in="SourceAlpha" type="matrix" values="0 0 0 0 0 0 0 0 0 0 0 0 0 0 0 0 0 0 127 0" result="hardAlpha"/>
<feOffset dx="2" dy="6"/>
<feGaussianBlur stdDeviation="12"/>
<feComposite in2="hardAlpha" operator="out"/>
<feColorMatrix type="matrix" values="0 0 0 0 0.466667 0 0 0 0 0.733333 0 0 0 0 0.466667 0 0 0 0.25 0"/>
<feBlend mode="normal" in2="BackgroundImageFix" result="effect1_dropShadow_441_288"/>
<feBlend mode="normal" in="SourceGraphic" in2="effect1_dropShadow_441_288" result="shape"/>
</filter>
<filter id="filter1_d_441_288" x="127.344" y="120.498" width="199.446" height="369.457" filterUnits="userSpaceOnUse" color-interpolation-filters="sRGB">
<feFlood flood-opacity="0" result="BackgroundImageFix"/>
<feColorMatrix in="SourceAlpha" type="matrix" values="0 0 0 0 0 0 0 0 0 0 0 0 0 0 0 0 0 0 127 0" result="hardAlpha"/>
<feOffset dy="4.50554"/>
<feGaussianBlur stdDeviation="2.25277"/>
<feComposite in2="hardAlpha" operator="out"/>
<feColorMatrix type="matrix" values="0 0 0 0 0 0 0 0 0 0 0 0 0 0 0 0 0 0 0.25 0"/>
<feBlend mode="normal" in2="BackgroundImageFix" result="effect1_dropShadow_441_288"/>
<feBlend mode="normal" in="SourceGraphic" in2="effect1_dropShadow_441_288" result="shape"/>
</filter>
<clipPath id="clip0_441_288">
<rect width="392" height="462.944" fill="white" transform="translate(22.5 18)"/>
</clipPath>
</defs>
</svg>
