<svg width="24" height="24" viewBox="0 0 24 24" fill="none" xmlns="http://www.w3.org/2000/svg">
<path d="M14.2189 21.6293C13.0389 21.6293 11.3689 20.7993 10.0489 16.8293L9.32891 14.6693L7.16891 13.9493C3.20891 12.6293 2.37891 10.9593 2.37891 9.77934C2.37891 8.60934 3.20891 6.92934 7.16891 5.59934L15.6589 2.76934C17.7789 2.05934 19.5489 2.26934 20.6389 3.34934C21.7289 4.42934 21.9389 6.20934 21.2289 8.32934L18.3989 16.8193C17.0689 20.7993 15.3989 21.6293 14.2189 21.6293ZM7.63891 7.02934C4.85891 7.95934 3.86891 9.05934 3.86891 9.77934C3.86891 10.4993 4.85891 11.5993 7.63891 12.5193L10.1589 13.3593C10.3789 13.4293 10.5589 13.6093 10.6289 13.8293L11.4689 16.3493C12.3889 19.1293 13.4989 20.1193 14.2189 20.1193C14.9389 20.1193 16.0389 19.1293 16.9689 16.3493L19.7989 7.85934C20.3089 6.31934 20.2189 5.05934 19.5689 4.40934C18.9189 3.75934 17.6589 3.67934 16.1289 4.18934L7.63891 7.02934Z" fill="#77BB77"/>
<path d="M10.1108 14.4C9.92078 14.4 9.73078 14.33 9.58078 14.18C9.29078 13.89 9.29078 13.41 9.58078 13.12L13.1608 9.53C13.4508 9.24 13.9308 9.24 14.2208 9.53C14.5108 9.82 14.5108 10.3 14.2208 10.59L10.6408 14.18C10.5008 14.33 10.3008 14.4 10.1108 14.4Z" fill="#77BB77"/>
</svg>
