<svg width="28" height="29" viewBox="0 0 28 29" fill="none" xmlns="http://www.w3.org/2000/svg">
<path fill-rule="evenodd" clip-rule="evenodd" d="M0.0302629 6.34011C-0.375412 2.56843 3.37396 -0.201353 6.68646 1.42432L25.3225 10.5675C28.8925 12.3176 28.8925 17.5792 25.3225 19.3293L6.68646 28.4741C3.37396 30.0998 -0.373852 27.33 0.0302629 23.5583C0.456199 19.5807 3.81279 16.5644 7.81312 16.5644H13.4456C13.8594 16.5644 14.2563 16.3941 14.5489 16.0911C14.8415 15.788 15.0059 15.377 15.0059 14.9484C15.0059 14.5198 14.8415 14.1088 14.5489 13.8057C14.2563 13.5027 13.8594 13.3324 13.4456 13.3324H7.81325C3.81349 13.3324 0.457113 10.317 0.0302629 6.34011Z" fill="white"/>
</svg>
