<svg width="15" height="15" viewBox="0 0 15 15" fill="none" xmlns="http://www.w3.org/2000/svg">
<path fill-rule="evenodd" clip-rule="evenodd" d="M10.4168 5.35091H11.0002C11.6418 5.35091 12.1668 5.87591 12.1668 6.51758V12.3509C12.1668 12.9926 11.6418 13.5176 11.0002 13.5176H4.00016C3.3585 13.5176 2.8335 12.9926 2.8335 12.3509V6.51758C2.8335 5.87591 3.3585 5.35091 4.00016 5.35091H4.5835V4.18424C4.5835 2.57424 5.89016 1.26758 7.50016 1.26758C9.11016 1.26758 10.4168 2.57424 10.4168 4.18424V5.35091ZM7.50016 2.43424C6.53183 2.43424 5.75016 3.21591 5.75016 4.18424V5.35091H9.25016V4.18424C9.25016 3.21591 8.4685 2.43424 7.50016 2.43424ZM4.00016 12.3509V6.51758H11.0002V12.3509H4.00016ZM8.66683 9.43425C8.66683 10.0759 8.14183 10.6009 7.50016 10.6009C6.8585 10.6009 6.3335 10.0759 6.3335 9.43425C6.3335 8.79258 6.8585 8.26758 7.50016 8.26758C8.14183 8.26758 8.66683 8.79258 8.66683 9.43425Z" fill="#494949"/>
</svg>
