<svg width="25" height="25" viewBox="0 0 25 25" fill="none" xmlns="http://www.w3.org/2000/svg">
<path d="M21.7495 12.582H19.6385M19.6385 12.582C19.6385 14.5418 18.8605 16.4209 17.4747 17.8067C16.0889 19.1925 14.2093 19.971 12.2495 19.971M19.6385 12.582C19.6385 10.6222 18.8605 8.74217 17.4747 7.35637C16.0889 5.97057 14.2093 5.19303 12.2495 5.19303M12.2495 3.08203V5.19303M12.2495 5.19303C10.2898 5.19303 8.41041 5.97051 7.0247 7.35622C5.63899 8.74193 4.86051 10.6213 4.86051 12.581C4.86051 14.5407 5.63899 16.4201 7.0247 17.8058C8.41041 19.1915 10.2898 19.971 12.2495 19.971M2.74951 12.582H4.86051M12.2495 22.082V19.971" stroke="#898384" stroke-width="1.5" stroke-miterlimit="10" stroke-linecap="round"/>
<path d="M12.2493 16.8034C13.3691 16.8034 14.443 16.3586 15.2347 15.5668C16.0265 14.775 16.4713 13.7011 16.4713 12.5814C16.4713 11.4616 16.0265 10.3877 15.2347 9.59597C14.443 8.80419 13.3691 8.35938 12.2493 8.35938C11.1296 8.35938 10.0557 8.80419 9.26394 9.59597C8.47216 10.3877 8.02734 11.4616 8.02734 12.5814C8.02734 13.7011 8.47216 14.775 9.26394 15.5668C10.0557 16.3586 11.1296 16.8034 12.2493 16.8034Z" stroke="#898384" stroke-width="1.5" stroke-miterlimit="10" stroke-linecap="round"/>
</svg>
