<svg width="28" height="28" viewBox="0 0 28 28" fill="none" xmlns="http://www.w3.org/2000/svg">
<path d="M8.80545 25.3754C19.3715 25.3754 25.1507 16.6216 25.1507 9.03017C25.1507 8.78156 25.1507 8.53405 25.1339 8.28762C26.2582 7.47437 27.2287 6.46752 28 5.31405C26.9516 5.77862 25.8393 6.08323 24.7005 6.21787C25.8995 5.50015 26.7974 4.37041 27.2261 3.04041C26.0985 3.70952 24.8647 4.18114 23.5782 4.43484C22.492 3.27978 20.975 2.62402 19.3896 2.62402C16.2351 2.62402 13.6394 5.21971 13.6394 8.37409C13.6394 8.81169 13.6894 9.24794 13.7883 9.67417C9.1717 9.44279 4.8644 7.25912 1.94879 3.67211C0.432633 6.28212 1.21712 9.66455 3.72734 11.3407C2.81323 11.3136 1.91877 11.067 1.12 10.6217V10.6945C1.12077 13.4187 3.05851 15.7865 5.72879 16.3259C4.8831 16.5565 3.99558 16.5902 3.13491 16.4244C3.8856 18.7587 6.05035 20.3678 8.50194 20.4139C6.46811 22.0122 3.95429 22.8804 1.36752 22.8779C0.910438 22.877 0.453797 22.8493 0 22.795C2.62686 24.4807 5.68422 25.3751 8.80545 25.371" fill="#77BB77"/>
</svg>
