<svg width="28" height="29" viewBox="0 0 28 29" fill="none" xmlns="http://www.w3.org/2000/svg">
<path fill-rule="evenodd" clip-rule="evenodd" d="M22.9072 5.79183C20.61 3.49204 17.5551 2.22497 14.3004 2.22363C7.59411 2.22363 2.1359 7.68139 2.13329 14.3897C2.13235 16.5342 2.69262 18.6273 3.75739 20.4724L2.03125 26.7772L8.48118 25.0853C10.2583 26.0546 12.2592 26.5655 14.2955 26.5662H14.3005C14.3001 26.5662 14.3009 26.5662 14.3005 26.5662C21.006 26.5662 26.4647 21.1079 26.4675 14.3995C26.4687 11.1484 25.2043 8.09152 22.9072 5.79183ZM14.3004 24.5114H14.2963C12.4818 24.5107 10.702 24.0232 9.14926 23.1018L8.78003 22.8827L4.95255 23.8867L5.97421 20.1549L5.73373 19.7723C4.72146 18.1622 4.18683 16.3012 4.18762 14.3904C4.18979 8.81472 8.72645 4.27855 14.3045 4.27855C17.0056 4.27939 19.5447 5.33271 21.454 7.2442C23.3633 9.1557 24.4142 11.6965 24.4131 14.3986C24.4109 19.9748 19.8743 24.5114 14.3004 24.5114Z" fill="#77BB77"/>
<path fill-rule="evenodd" clip-rule="evenodd" d="M19.8466 16.9379C19.5426 16.7858 18.0479 16.0504 17.7692 15.9489C17.4906 15.8474 17.2879 15.7967 17.0853 16.101C16.8826 16.4053 16.3 17.0901 16.1226 17.2931C15.9453 17.4959 15.7679 17.5214 15.464 17.3691C15.16 17.2169 14.1804 16.8959 13.0192 15.8602C12.1154 15.054 11.5053 14.0586 11.3279 13.7541C11.1506 13.4498 11.309 13.2853 11.4613 13.1337C11.598 12.9974 11.7653 12.7786 11.9173 12.6011C12.0693 12.4236 12.12 12.2967 12.2213 12.094C12.3226 11.891 12.272 11.7135 12.196 11.5614C12.12 11.4092 11.512 9.91281 11.2587 9.30399C11.0118 8.71128 10.7612 8.79159 10.5746 8.78215C10.3975 8.77331 10.1946 8.77148 9.99194 8.77148C9.78929 8.77148 9.45987 8.84759 9.18127 9.15188C8.90262 9.45626 8.11719 10.1918 8.11719 11.688C8.11719 13.1845 9.20656 14.6301 9.35857 14.8329C9.51054 15.0359 11.5023 18.1065 14.552 19.4234C15.2773 19.7366 15.8436 19.9237 16.2851 20.0637C17.0133 20.2952 17.6761 20.2625 18.1999 20.1842C18.784 20.0969 19.9986 19.4488 20.2519 18.7387C20.5053 18.0285 20.5053 17.4198 20.4292 17.293C20.3533 17.1662 20.1506 17.0901 19.8466 16.9379Z" fill="#77BB77"/>
</svg>
