<svg width="25" height="24" viewBox="0 0 25 24" fill="none" xmlns="http://www.w3.org/2000/svg">
<path d="M12.5006 13.0807C12.3706 13.0807 12.2406 13.0507 12.1206 12.9807L6.82061 9.92068C6.46061 9.71068 6.34059 9.25068 6.55059 8.90068C6.76059 8.54068 7.21059 8.42068 7.58059 8.63068L12.5006 11.4807L17.3906 8.65068C17.7506 8.44068 18.2106 8.57068 18.4206 8.92068C18.6306 9.28068 18.5006 9.74068 18.1506 9.94068L12.8906 12.9807C12.7606 13.0407 12.6306 13.0807 12.5006 13.0807Z" fill="#298501"/>
<path d="M12.5 18.5201C12.09 18.5201 11.75 18.1801 11.75 17.7701V12.3301C11.75 11.9201 12.09 11.5801 12.5 11.5801C12.91 11.5801 13.25 11.9201 13.25 12.3301V17.7701C13.25 18.1801 12.91 18.5201 12.5 18.5201Z" fill="#298501"/>
<path d="M12.5002 18.7508C11.9202 18.7508 11.3503 18.6208 10.8903 18.3708L7.69025 16.5908C6.73025 16.0608 5.99023 14.7908 5.99023 13.6908V10.3008C5.99023 9.21078 6.74025 7.93078 7.69025 7.40078L10.8903 5.62078C11.8103 5.11078 13.1902 5.11078 14.1102 5.62078L17.3102 7.40078C18.2702 7.93078 19.0103 9.20078 19.0103 10.3008V13.6908C19.0103 14.7808 18.2602 16.0608 17.3102 16.5908L14.1102 18.3708C13.6502 18.6208 13.0802 18.7508 12.5002 18.7508ZM12.5002 6.75078C12.1702 6.75078 11.8502 6.81078 11.6202 6.94078L8.42026 8.72078C7.93026 8.99078 7.49023 9.75078 7.49023 10.3008V13.6908C7.49023 14.2508 7.93026 15.0008 8.42026 15.2708L11.6202 17.0508C12.0802 17.3108 12.9202 17.3108 13.3802 17.0508L16.5802 15.2708C17.0702 15.0008 17.5103 14.2408 17.5103 13.6908V10.3008C17.5103 9.74078 17.0702 8.99078 16.5802 8.72078L13.3802 6.94078C13.1502 6.81078 12.8302 6.75078 12.5002 6.75078Z" fill="#298501"/>
<path d="M15.5002 22.7502C15.2302 22.7502 14.9802 22.6002 14.8502 22.3702C14.7202 22.1302 14.7202 21.8502 14.8602 21.6102L15.9102 19.8602C16.1202 19.5102 16.5802 19.3902 16.9402 19.6002C17.3002 19.8102 17.4102 20.2702 17.2002 20.6302L16.9302 21.0802C19.6902 20.4302 21.7602 17.9502 21.7602 14.9902C21.7602 14.5802 22.1002 14.2402 22.5102 14.2402C22.9202 14.2402 23.2602 14.5802 23.2602 14.9902C23.2502 19.2702 19.7702 22.7502 15.5002 22.7502Z" fill="#298501"/>
<path d="M2.5 9.75C2.09 9.75 1.75 9.41 1.75 9C1.75 4.73 5.23 1.25 9.5 1.25C9.77 1.25 10.02 1.4 10.15 1.63C10.28 1.87 10.28 2.15 10.14 2.39L9.09 4.14C8.88 4.49 8.42 4.61 8.06 4.4C7.7 4.19 7.58999 3.73 7.79999 3.37L8.07001 2.92C5.31001 3.57 3.23999 6.05 3.23999 9.01C3.24999 9.41 2.91 9.75 2.5 9.75Z" fill="#298501"/>
</svg>
