<svg width="17" height="5" viewBox="0 0 17 5" fill="none" xmlns="http://www.w3.org/2000/svg">
<path d="M2.35938 0.748047C1.82894 0.748047 1.32023 0.958761 0.945161 1.33383C0.570089 1.70891 0.359375 2.21761 0.359375 2.74805C0.359375 3.27848 0.570089 3.78719 0.945161 4.16226C1.32023 4.53733 1.82894 4.74805 2.35938 4.74805C2.88981 4.74805 3.39852 4.53733 3.77359 4.16226C4.14866 3.78719 4.35938 3.27848 4.35938 2.74805C4.35938 2.21761 4.14866 1.70891 3.77359 1.33383C3.39852 0.958761 2.88981 0.748047 2.35938 0.748047ZM8.35938 0.748047C7.82894 0.748047 7.32023 0.958761 6.94516 1.33383C6.57009 1.70891 6.35938 2.21761 6.35938 2.74805C6.35938 3.27848 6.57009 3.78719 6.94516 4.16226C7.32023 4.53733 7.82894 4.74805 8.35938 4.74805C8.88981 4.74805 9.39852 4.53733 9.77359 4.16226C10.1487 3.78719 10.3594 3.27848 10.3594 2.74805C10.3594 2.21761 10.1487 1.70891 9.77359 1.33383C9.39852 0.958761 8.88981 0.748047 8.35938 0.748047ZM14.3594 0.748047C13.8289 0.748047 13.3202 0.958761 12.9452 1.33383C12.5701 1.70891 12.3594 2.21761 12.3594 2.74805C12.3594 3.27848 12.5701 3.78719 12.9452 4.16226C13.3202 4.53733 13.8289 4.74805 14.3594 4.74805C14.8898 4.74805 15.3985 4.53733 15.7736 4.16226C16.1487 3.78719 16.3594 3.27848 16.3594 2.74805C16.3594 2.21761 16.1487 1.70891 15.7736 1.33383C15.3985 0.958761 14.8898 0.748047 14.3594 0.748047Z" fill="black"/>
</svg>
